<svg id="Layer_1" data-name="Layer 1" xmlns="http://www.w3.org/2000/svg" viewBox="0 0 15 15"><defs><style>.cls-1{fill:none;stroke:#4e4e4e;stroke-linecap:round;stroke-linejoin:round;stroke-width:1.5px;}</style></defs><title>icon-copy</title><path class="cls-1" d="M2.55,3.48H5.76L9.24,7v6.17a1,1,0,0,1-1,1H2.55a1,1,0,0,1-1-1V4.52A1,1,0,0,1,2.55,3.48Z"/><path class="cls-1" d="M10.52.8H6.8a1,1,0,0,0-1,1V3.48L9.24,7"/><path class="cls-1" d="M9.24,11.51h3.21a1,1,0,0,0,1-1V3.66"/><polyline class="cls-1" points="5.76 3.82 5.76 6.68 8.73 6.68"/><line class="cls-1" x1="10.52" y1="0.8" x2="13.49" y2="3.66"/><polyline class="cls-1" points="10.22 0.8 10.22 3.66 12.7 3.66"/></svg>