<?xml version="1.0" encoding="UTF-8"?>
<svg width="13px" height="18px" viewBox="0 0 13 18" version="1.1" xmlns="http://www.w3.org/2000/svg" xmlns:xlink="http://www.w3.org/1999/xlink">
    <!-- Generator: Sketch 50.2 (55047) - http://www.bohemiancoding.com/sketch -->
    <title>icon/keyword</title>
    <desc>Created with Sketch.</desc>
    <defs>
        <polygon id="path-1" points="11.2710743 0.0338056161 0 0.0338056161 0 11.7489714 11.2710743 11.7489714 11.2710743 0.0338056161"></polygon>
    </defs>
    <g id="Symbols" stroke="none" stroke-width="1" fill="none" fill-rule="evenodd">
        <g id="tab/keywords" transform="translate(-1.000000, -3.000000)">
            <g transform="translate(1.000000, 3.000000)" id="icon/keyword">
                <g transform="translate(0.909359, 0.743469)">
                    <path d="M2.88516877,4.57700308 C2.88516877,4.25996947 3.14189264,4.00324561 3.45892624,4.00324561 C3.77514485,4.00324561 4.03186872,4.25996947 4.03186872,4.57700308 C4.03186872,4.89403668 3.77514485,5.15076055 3.45892624,5.15076055 C3.14189264,5.15076055 2.88516877,4.89403668 2.88516877,4.57700308" id="Fill-1" fill="#4E4E4E"></path>
                    <path d="M5.06235017,4.57700308 C5.06235017,4.25996947 5.31825904,4.00324561 5.63529264,4.00324561 C5.95232624,4.00324561 6.20905011,4.25996947 6.20905011,4.57700308 C6.20905011,4.89403668 5.95232624,5.15076055 5.63529264,5.15076055 C5.31825904,5.15076055 5.06235017,4.89403668 5.06235017,4.57700308" id="Fill-3" fill="#4E4E4E"></path>
                    <path d="M7.23912407,4.57700308 C7.23912407,4.25996947 7.49584794,4.00324561 7.81288154,4.00324561 C8.12991514,4.00324561 8.38582401,4.25996947 8.38582401,4.57700308 C8.38582401,4.89403668 8.12991514,5.15076055 7.81288154,5.15076055 C7.49584794,5.15076055 7.23912407,4.89403668 7.23912407,4.57700308" id="Fill-5" fill="#4E4E4E"></path>
                    <g id="Group-9" transform="translate(0.000000, 0.009943)">
                        <mask id="mask-2" fill="white">
                            <use xlink:href="#path-1"></use>
                        </mask>
                        <g id="Clip-8"></g>
                        <path d="M10.0485797,7.41237557 C10.0485797,7.54929497 9.93692517,7.66176447 9.79919078,7.66176447 L7.20750221,7.66176447 C6.8700937,7.66176447 6.5962549,7.93560326 6.5962549,8.27301177 C6.5962549,9.58026601 5.44710997,10.1466885 4.67449338,10.3805925 L4.67449338,8.27301177 C4.67449338,7.93560326 4.40065459,7.66176447 4.06324608,7.66176447 L1.47155751,7.66176447 C1.33463811,7.66176447 1.22216861,7.54929497 1.22216861,7.41237557 L1.22216861,1.50528163 C1.22216861,1.36754723 1.33463811,1.25589273 1.47155751,1.25589273 L9.79919078,1.25589273 C9.93692517,1.25589273 10.0485797,1.36754723 10.0485797,1.50528163 L10.0485797,7.41237557 Z M7.81874951,8.88425908 L9.79919078,8.88425908 C10.6109272,8.88425908 11.2710743,8.22411199 11.2710743,7.41237557 L11.2710743,1.50528163 C11.2710743,0.693545206 10.6109272,0.0333981179 9.79919078,0.0333981179 L1.47155751,0.0333981179 C0.65982109,0.0333981179 -0.000325998562,0.693545206 -0.000325998562,1.50528163 L-0.000325998562,7.41237557 C-0.000325998562,8.22411199 0.65982109,8.88425908 1.47155751,8.88425908 L3.45281377,8.88425908 L3.45281377,11.1377241 C3.45281377,11.3121334 3.52697844,11.4775776 3.65656287,11.5941221 C3.76903237,11.6943667 3.91491673,11.7489714 4.06324608,11.7489714 C4.08688097,11.7489714 4.10970087,11.7481564 4.13252077,11.7448965 C4.81222777,11.6682868 5.80896838,11.3634781 6.5962549,10.7391909 L7.81874951,8.88425908 Z" id="Fill-7" fill="#4E4E4E" mask="url(#mask-2)"></path>
                    </g>
                    <polyline id="Stroke-10" stroke="#4E4E4E" stroke-width="1.2" stroke-linecap="round" stroke-linejoin="round" points="7.23912407 8.33918948 7.23912407 16.5567982 4.03129822 16.5567982 4.03129822 13.1492983"></polyline>
                    <path d="M8.86194491,17.168453 L7.23928707,17.168453 L7.23928707,15.9459584 L8.86194491,15.9459584 C9.04287411,15.9459584 9.18957346,16.0934728 9.18957346,16.273587 L9.18957346,16.8408245 C9.18957346,17.0209387 9.04287411,17.168453 8.86194491,17.168453" id="Fill-12" fill="#4E4E4E"></path>
                    <path d="M7.23920557,14.8468543 L7.23920557,13.6243597 L8.8634934,13.6243597 C9.04442261,13.6243597 9.18949197,13.770244 9.18949197,13.9503582 L9.18949197,14.5208557 C9.18949197,14.7009699 9.04442261,14.8468543 8.8634934,14.8468543 L7.23920557,14.8468543 Z" id="Fill-14" fill="#4E4E4E"></path>
                </g>
            </g>
        </g>
    </g>
</svg>