<?xml version="1.0" encoding="UTF-8"?>
<svg width="24px" height="24px" viewBox="0 0 24 24" version="1.1" xmlns="http://www.w3.org/2000/svg" xmlns:xlink="http://www.w3.org/1999/xlink">
    <!-- Generator: Sketch 50.2 (55047) - http://www.bohemiancoding.com/sketch -->
    <title>icon/settings</title>
    <desc>Created with Sketch.</desc>
    <defs>
        <polygon id="path-1" points="0 0.1252 0 23 22.8746 23 22.8746 0.1252"></polygon>
    </defs>
    <g id="Page-1" stroke="none" stroke-width="1" fill="none" fill-rule="evenodd" opacity="0.599807518">
        <g id="v.2---Agent-main-screen-(1)" transform="translate(-17.000000, -808.000000)">
            <g id="icon/settings" transform="translate(17.666016, 807.514893)">
                <g id="Group-3" transform="translate(0.000000, 0.875000)">
                    <mask id="mask-2" fill="white">
                        <use xlink:href="#path-1"></use>
                    </mask>
                    <g id="Clip-2"></g>
                    <path d="M10.9346,21.5002 L11.9556,21.5002 C12.2346,21.5002 12.4776,21.3072 12.5396,21.0342 L13.1026,18.5892 C13.3246,17.6242 14.4326,17.1692 15.2686,17.6982 L17.3696,19.0292 C17.6066,19.1762 17.9126,19.1402 18.1096,18.9432 L18.8306,18.2242 C19.0276,18.0252 19.0626,17.7182 18.9136,17.4802 L17.5816,15.3532 C17.0576,14.5142 17.5196,13.4082 18.4856,13.1912 L20.9126,12.6482 C21.1836,12.5842 21.3746,12.3422 21.3746,12.0632 L21.3746,11.0452 C21.3746,10.7662 21.1816,10.5222 20.9096,10.4602 L18.4736,9.8992 C17.5116,9.6792 17.0556,8.5742 17.5806,7.7382 L18.9056,5.6302 C19.0506,5.3942 19.0156,5.0882 18.8186,4.8912 L18.0936,4.1662 C17.8976,3.9702 17.5926,3.9342 17.3566,4.0782 L15.2456,5.3682 C14.4116,5.8772 13.3226,5.4222 13.0996,4.4712 L12.5426,2.0892 C12.4796,1.8162 12.2376,1.6252 11.9576,1.6252 L10.9376,1.6252 C10.6596,1.6252 10.4166,1.8162 10.3536,2.0882 L9.7896,4.4912 C9.5666,5.4432 8.4756,5.8982 7.6416,5.3862 L5.5196,4.0822 C5.2836,3.9352 4.9756,3.9712 4.7786,4.1682 L4.0576,4.8892 C3.8606,5.0862 3.8246,5.3932 3.9716,5.6302 L5.2686,7.7232 C5.7846,8.5542 5.3356,9.6452 4.3856,9.8732 L1.9636,10.4572 C1.6926,10.5212 1.4996,10.7632 1.4996,11.0412 L1.4996,12.0632 C1.4996,12.3422 1.6906,12.5832 1.9606,12.6472 L4.3766,13.2682 C5.3156,13.5092 5.7496,14.5912 5.2396,15.4142 L3.9556,17.4802 C3.8096,17.7172 3.8446,18.0242 4.0416,18.2222 L4.7626,18.9422 C4.9596,19.1402 5.2676,19.1752 5.5036,19.0282 L7.5836,17.7382 C8.4086,17.2282 9.4916,17.6642 9.7306,18.6042 L10.3506,21.0382 C10.3546,21.0502 10.3476,21.0252 10.3506,21.0382 C10.4146,21.3092 10.6566,21.5002 10.9346,21.5002 M12.6896,23.0002 L10.2046,23.0002 C9.6596,23.0002 9.1856,22.6252 9.0596,22.0952 L8.4946,19.7092 C8.4156,19.3782 8.0376,19.2222 7.7476,19.4002 L5.6726,20.6882 C5.2086,20.9762 4.6076,20.9062 4.2216,20.5212 L2.4626,18.7632 C2.0766,18.3772 2.0066,17.7742 2.2946,17.3112 L3.5816,15.2392 C3.7606,14.9502 3.6036,14.5702 3.2726,14.4922 L0.9086,13.9392 C0.3756,13.8152 -0.0004,13.3412 -0.0004,12.7952 L-0.0004,10.3092 C-0.0004,9.7632 0.3756,9.2882 0.9086,9.1632 L3.2816,8.6082 C3.6136,8.5312 3.7706,8.1512 3.5906,7.8622 L2.3096,5.7972 C2.0226,5.3332 2.0916,4.7312 2.4786,4.3462 L4.2376,2.5882 C4.6226,2.2012 5.2246,2.1332 5.6886,2.4212 L7.7596,3.7072 C8.0476,3.8862 8.4276,3.7292 8.5056,3.3972 L9.0596,1.0332 C9.1846,0.5012 9.6586,0.1252 10.2056,0.1252 L12.6916,0.1252 C13.2376,0.1252 13.7116,0.5012 13.8366,1.0332 L14.3896,3.3962 C14.4666,3.7292 14.8486,3.8862 15.1376,3.7052 L17.1836,2.4242 C17.6476,2.1342 18.2506,2.2022 18.6386,2.5892 L20.3966,4.3462 C20.7826,4.7312 20.8526,5.3312 20.5666,5.7962 L19.2846,7.8742 C19.1056,8.1632 19.2636,8.5432 19.5956,8.6192 L21.9626,9.1642 C22.4976,9.2872 22.8746,9.7622 22.8746,10.3102 L22.8746,12.7952 C22.8746,13.3412 22.4996,13.8142 21.9696,13.9392 L19.5946,14.5022 C19.2636,14.5812 19.1076,14.9612 19.2876,15.2502 L20.5766,17.3092 C20.8666,17.7732 20.7976,18.3772 20.4106,18.7652 L18.6526,20.5212 C18.2676,20.9062 17.6676,20.9772 17.2046,20.6902 L15.1256,19.4092 C14.8366,19.2302 14.4566,19.3902 14.3806,19.7212 L13.8356,22.0882 C13.7126,22.6212 13.2376,23.0002 12.6896,23.0002" id="Fill-1" fill="#4E4E4E" mask="url(#mask-2)"></path>
                </g>
                <path d="M11.4307,10.9787 C10.6317,10.9787 9.9817,11.6287 9.9817,12.4277 C9.9817,13.2277 10.6317,13.8777 11.4307,13.8777 C12.2307,13.8777 12.8807,13.2277 12.8807,12.4277 C12.8807,11.6287 12.2307,10.9787 11.4307,10.9787 M11.4307,15.3777 C9.8047,15.3777 8.4817,14.0547 8.4817,12.4277 C8.4817,10.8017 9.8047,9.4787 11.4307,9.4787 C13.0577,9.4787 14.3807,10.8017 14.3807,12.4277 C14.3807,14.0547 13.0577,15.3777 11.4307,15.3777" id="Fill-4" fill="#4E4E4E"></path>
            </g>
        </g>
    </g>
</svg>