<svg width="19" height="19" xmlns="http://www.w3.org/2000/svg" xmlns:xlink="http://www.w3.org/1999/xlink">
  <defs>
    <path id="a" d="M.0001.693H17.842v18.3069H.0001z"/>
  </defs>
  <g fill="none" fill-rule="evenodd">
    <path d="M8.0482 3.8955l-.707.707a.5003.5003 0 0 0 0 .707l1.344 1.345H.7502c-.276 0-.5.224-.5.5v.999c0 .277.224.501.5.501h7.935l-1.344 1.344a.5003.5003 0 0 0 0 .707l.707.707c.195.195.512.195.708 0l3.404-3.405a.5003.5003 0 0 0 0-.707l-3.404-3.405c-.196-.195-.513-.195-.708 0" fill="#FEFEFE"/>
  <g transform="translate(.25 -.4214)">
  <mask id="b" fill="#fff">
  <use xlink:href="#a"/>
  </mask>
    <path d="M16.8421.6929H1.0001c-.553 0-1 .448-1 1v6.882c0 .504.5.501.5.501h1.5v-6.383h13.842v10.582H4.7251a.995.995 0 0 0-.706.293l-2.019 2.018v-4.129a.42.42 0 0 0-.42-.42h-1.16a.42.42 0 0 0-.42.42v6.543a1 1 0 0 0 .617.924c.124.051.254.076.383.076.26 0 .515-.101.707-.293l3.432-3.432h11.703c.552 0 1-.448 1-1V1.6929c0-.552-.448-1-1-1" fill="#FEFEFE" mask="url(#b)"/>
  </g>
  </g>
</svg>