<svg id="Layer_1" data-name="Layer 1" xmlns="http://www.w3.org/2000/svg" viewBox="0 0 15 15">
    <defs>
        <style>.cls-1{fill:#4e4e4e;}</style>
    </defs>
    <path class="cls-1" d="M7.5,9.37A2.36,2.36,0,0,0,9.86,7V2.38a2.36,2.36,0,1,0-4.72,0V7A2.36,2.36,0,0,0,7.5,9.37Zm-.86-7a.86.86,0,1,1,1.72,0V7A.86.86,0,0,1,6.64,7Z" />
    <path class="cls-1" d="M12.09,7.59a.76.76,0,0,0-1,.42A3.88,3.88,0,0,1,3.89,8a.75.75,0,1,0-1.4.56A5.36,5.36,0,0,0,6.75,11.9v1.61H5.35a.75.75,0,0,0,0,1.5h4.3a.75.75,0,0,0,0-1.5H8.25V11.9A5.34,5.34,0,0,0,12.5,8.57.75.75,0,0,0,12.09,7.59Z" />
</svg>