<?xml version="1.0" encoding="UTF-8"?>
<svg width="52px" height="52px" viewBox="0 0 52 52" version="1.1" xmlns="http://www.w3.org/2000/svg" xmlns:xlink="http://www.w3.org/1999/xlink">
    <!-- Generator: Sketch 54.1 (76490) - https://sketchapp.com -->
    <title>Group 45</title>
    <desc>Created with Sketch.</desc>
    <g id="Page-1" stroke="none" stroke-width="1" fill="none" fill-rule="evenodd">
        <g id="prebuilt-category:-step2" transform="translate(-722.000000, -515.000000)">
            <g id="Group-45" transform="translate(723.000000, 516.000000)">
                <path d="M46.3666,49.4211 L3.5546,49.4211 C1.8676,49.4211 0.4996,48.0541 0.4996,46.3661 L0.4996,3.5551 C0.4996,1.8681 1.8676,0.5001 3.5546,0.5001 L46.3666,0.5001 C48.0536,0.5001 49.4216,1.8681 49.4216,3.5551 L49.4216,46.3661 C49.4216,48.0541 48.0536,49.4211 46.3666,49.4211" id="Fill-1" fill="#4E4E4E"></path>
                <path d="M46.3666,49.4211 L3.5546,49.4211 C1.8676,49.4211 0.4996,48.0541 0.4996,46.3661 L0.4996,3.5551 C0.4996,1.8681 1.8676,0.5001 3.5546,0.5001 L46.3666,0.5001 C48.0536,0.5001 49.4216,1.8681 49.4216,3.5551 L49.4216,46.3661 C49.4216,48.0541 48.0536,49.4211 46.3666,49.4211 Z" id="Stroke-3" stroke="#4E4E4E" stroke-linecap="round" stroke-linejoin="round"></path>
                <path d="M0.4999,24.9607 L24.9609,24.9607 L24.9609,0.5007 L3.5549,0.5007 C1.8679,0.5007 0.4999,1.8677 0.4999,3.5557 L0.4999,24.9607 Z" id="Fill-5" fill="#7F7F7F"></path>
                <path d="M0.4999,24.9607 L24.9609,24.9607 L24.9609,0.5007 L3.5549,0.5007 C1.8679,0.5007 0.4999,1.8677 0.4999,3.5557 L0.4999,24.9607 Z" id="Stroke-7" stroke="#7F7F7F" stroke-linecap="round" stroke-linejoin="round"></path>
                <path d="M49.601,24.9607 L25.14,24.9607 L25.14,0.5007 L46.545,0.4997 C48.233,0.4997 49.601,1.8677 49.601,3.5557 L49.601,24.9607 Z" id="Fill-9" fill="#606060"></path>
                <path d="M49.601,24.9607 L25.14,24.9607 L25.14,0.5007 L46.545,0.4997 C48.233,0.4997 49.601,1.8677 49.601,3.5557 L49.601,24.9607 Z" id="Stroke-11" stroke="#606060" stroke-linecap="round"></path>
                <path d="M0.4999,25.8904 L24.1469,25.8904 L24.1469,49.5374 L3.4539,49.5374 C1.8219,49.5374 0.4999,48.2154 0.4999,46.5834 L0.4999,25.8904 Z" id="Fill-13" fill="#3D3D3D"></path>
                <path d="M0.4999,25.8904 L24.1469,25.8904 L24.1469,49.5374 L3.4539,49.5374 C1.8219,49.5374 0.4999,48.2154 0.4999,46.5834 L0.4999,25.8904 Z" id="Stroke-15" stroke="#3D3D3D" stroke-linecap="round"></path>
                <g id="Group-20" transform="translate(6.000000, 12.037100)">
                    <path d="M0.9164,0.6931 L11.7304,0.6931" id="Fill-17" fill="#FFFFFF"></path>
                    <path d="M0.9164,0.6931 L11.7304,0.6931" id="Stroke-19" stroke="#FFFFFF" stroke-width="1.5" stroke-linecap="round"></path>
                </g>
                <g id="Group-24" transform="translate(11.000000, 7.037100)">
                    <path d="M1.3236,11.1003 L1.3236,0.2863" id="Fill-21" fill="#FFFFFF"></path>
                    <path d="M1.3236,11.1003 L1.3236,0.2863" id="Stroke-23" stroke="#FFFFFF" stroke-width="1.5" stroke-linecap="round"></path>
                </g>
                <g id="Group-28" transform="translate(33.000000, 33.037100)">
                    <path d="M0.5472,8.5002 L8.1932,0.8542" id="Fill-25" fill="#FFFFFF"></path>
                    <path d="M0.5472,8.5002 L8.1932,0.8542" id="Stroke-27" stroke="#FFFFFF" stroke-width="1.5" stroke-linecap="round"></path>
                </g>
                <g id="Group-32" transform="translate(33.000000, 33.037100)">
                    <path d="M8.1937,8.5002 L0.5477,0.8542" id="Fill-29" fill="#FFFFFF"></path>
                    <path d="M8.1937,8.5002 L0.5477,0.8542" id="Stroke-31" stroke="#FFFFFF" stroke-width="1.5" stroke-linecap="round"></path>
                </g>
                <g id="Group-36" transform="translate(31.000000, 12.037100)">
                    <path d="M0.9633,0.6931 L11.7773,0.6931" id="Fill-33" fill="#FFFFFF"></path>
                    <path d="M0.9633,0.6931 L11.7773,0.6931" id="Stroke-35" stroke="#FFFFFF" stroke-width="1.5" stroke-linecap="round"></path>
                </g>
                <g id="Group-40" transform="translate(6.000000, 37.037100)">
                    <path d="M0.9164,0.677 L11.7304,0.677" id="Fill-37" fill="#FFFFFF"></path>
                    <path d="M0.9164,0.677 L11.7304,0.677" id="Stroke-39" stroke="#FFFFFF" stroke-width="1.5" stroke-linecap="round"></path>
                </g>
                <path d="M10.9608,33.5832 C10.9608,32.8302 11.5708,32.2212 12.3238,32.2212 C13.0758,32.2212 13.6858,32.8302 13.6858,33.5832 C13.6858,34.3352 13.0758,34.9452 12.3238,34.9452 C11.5708,34.9452 10.9608,34.3352 10.9608,33.5832" id="Fill-41" fill="#FFFFFF"></path>
                <path d="M10.9608,41.844 C10.9608,41.092 11.5708,40.482 12.3238,40.482 C13.0758,40.482 13.6858,41.092 13.6858,41.844 C13.6858,42.597 13.0758,43.207 12.3238,43.207 C11.5708,43.207 10.9608,42.597 10.9608,41.844" id="Fill-43" fill="#FFFFFF"></path>
            </g>
        </g>
    </g>
</svg>