<svg xmlns="http://www.w3.org/2000/svg" viewBox="0 0 15.22 14.36">
    <defs>
        <style>.cls-1{fill:#4e4e4e;}</style>
    </defs>
    <title>chart-icon</title>
    <g id="Layer_2" data-name="Layer 2">
        <g id="Layer_1-2" data-name="Layer 1">
            <path class="cls-1" d="M14.47,12.86H2.15L5.52,7.78A1.92,1.92,0,0,0,6,7.85a1.67,1.67,0,0,0,.8-.2L8.56,9.72a.78.78,0,0,0,.62.27.79.79,0,0,0,.58-.33L13,4.84l.26,0a1.76,1.76,0,1,0-1.75-1.75,1.7,1.7,0,0,0,.25.89L9.07,8,7.72,6.42a1.73,1.73,0,0,0,0-.32,1.76,1.76,0,1,0-3.51,0,1.77,1.77,0,0,0,.14.69L1.5,11.13V.75A.76.76,0,0,0,.75,0,.76.76,0,0,0,0,.75V13.61a.73.73,0,0,0,.08.33s0,0,0,0a.59.59,0,0,0,.13.18h0a.59.59,0,0,0,.19.13l.06,0a.75.75,0,0,0,.26,0H14.47a.75.75,0,0,0,0-1.5Z" />
        </g>
    </g>
</svg>