<?xml version="1.0" encoding="UTF-8"?>
<svg width="13px" height="13px" viewBox="0 0 13 13" version="1.1" xmlns="http://www.w3.org/2000/svg" xmlns:xlink="http://www.w3.org/1999/xlink">
    <!-- Generator: Sketch 50.2 (55047) - http://www.bohemiancoding.com/sketch -->
    <title>Page 1</title>
    <desc>Created with Sketch.</desc>
    <defs></defs>
    <g id="Page-1" stroke="none" stroke-width="1" fill="none" fill-rule="evenodd">
        <g id="v.2---Agent-main-screen-(1)" transform="translate(-1164.000000, -31.000000)">
            <g id="Page-1" transform="translate(1165.620742, 32.143799)">
                <path d="M0,6.75453437 L0,10.695249 L2.55059731,8.14415997 C2.82252333,7.87272567 3.19082821,7.72028974 3.5748684,7.72028974 L3.8138486,7.72028974 L9.00797996,7.72028974 C9.54101398,7.72028974 9.9732436,7.28806012 9.9732436,6.75453437 L9.9732436,0.965411161 C9.9732436,0.432377137 9.54101398,0.000147518641 9.00797996,0.000147518641 L0.965263642,0.000147518641 C0.432229619,0.000147518641 0,0.432377137 0,0.965411161 L0,6.75453437" id="Fill-1" fill="#FFFFFF"></path>
                <path d="M0,6.75453437 L0,10.695249 L2.55059731,8.14415997 C2.82252333,7.87272567 3.19082821,7.72028974 3.5748684,7.72028974 L3.8138486,7.72028974 L9.00797996,7.72028974 C9.54101398,7.72028974 9.9732436,7.28806012 9.9732436,6.75453437 L9.9732436,0.965411161 C9.9732436,0.432377137 9.54101398,0.000147518641 9.00797996,0.000147518641 L0.965263642,0.000147518641 C0.432229619,0.000147518641 0,0.432377137 0,0.965411161 L0,6.75453437" id="Stroke-3" stroke="#FFFFFF" stroke-width="2" stroke-linecap="round" stroke-linejoin="round"></path>
            </g>
        </g>
    </g>
</svg>