<?xml version="1.0" encoding="UTF-8"?>
<svg width="23px" height="22px" viewBox="0 0 23 22" version="1.1" xmlns="http://www.w3.org/2000/svg" xmlns:xlink="http://www.w3.org/1999/xlink">
    <!-- Generator: Sketch 53.2 (72643) - https://sketchapp.com -->
    <title>Group 9</title>
    <desc>Created with Sketch.</desc>
    <g id="Page-1" stroke="none" stroke-width="1" fill="none" fill-rule="evenodd">
        <g id="agent-list-page:-hover-export" transform="translate(-514.000000, -603.000000)">
            <g id="Group-9" transform="translate(514.000000, 603.000000)">
                <path d="M1.7964,7.746 L1.7964,7.746 C0.4004,6.35 0.4004,4.067 1.7964,2.671 C3.1924,1.276 5.4754,1.276 6.8714,2.671 L12.4094,8.209 C13.8054,9.605 13.8054,11.888 12.4094,13.284 C11.0134,14.679 8.7304,14.679 7.3344,13.284 L6.2984,12.247" id="Stroke-1" stroke="#4E4E4E" stroke-width="1.5" stroke-linecap="round" stroke-linejoin="round"></path>
                <path d="M10.337,10.6537 L9.267,9.5837 C7.872,8.1877 5.588,8.1877 4.192,9.5837 C4.098,9.6777 4.01,9.7757 3.929,9.8777 C2.803,11.2837 2.891,13.3567 4.192,14.6577 L9.731,20.1957 C11.126,21.5917 13.41,21.5917 14.805,20.1957 C16.201,18.7997 16.201,16.5167 14.805,15.1217" id="Stroke-3" stroke="#4E4E4E" stroke-width="1.5" stroke-linecap="round" stroke-linejoin="round"></path>
                <path d="M9.9527,6.0746 C9.9527,2.7196 12.6727,-0.0004 16.0277,-0.0004 C19.3827,-0.0004 22.1017,2.7196 22.1017,6.0746 C22.1017,9.4296 19.3827,12.1496 16.0277,12.1496 C12.6727,12.1496 9.9527,9.4296 9.9527,6.0746" id="Fill-5" fill="#28B46D"></path>
                <polyline id="Stroke-7" stroke="#FEFEFE" stroke-width="1.5" stroke-linecap="round" stroke-linejoin="round" points="13.3218 6.3895 15.2088 8.2755 19.1868 4.2965"></polyline>
            </g>
        </g>
    </g>
</svg>