<?xml version="1.0" encoding="UTF-8"?>
<svg width="27px" height="50px" viewBox="0 0 27 50" version="1.1" xmlns="http://www.w3.org/2000/svg" xmlns:xlink="http://www.w3.org/1999/xlink">
    <!-- Generator: Sketch 54.1 (76490) - https://sketchapp.com -->
    <title>dollar-currency-symbol-svgrepo-com</title>
    <desc>Created with Sketch.</desc>
    <g id="Page-1" stroke="none" stroke-width="1" fill="none" fill-rule="evenodd">
        <g id="prebuilt-category:-step2" transform="translate(-951.000000, -516.000000)" fill="#E38D25" fill-rule="nonzero">
            <g id="dollar-currency-symbol-svgrepo-com" transform="translate(951.000000, 516.000000)">
                <path d="M26.9996071,34.2685211 C27.0283202,30.3128272 25.4830619,27.1844073 22.400853,24.9751479 C20.0202923,23.2741405 17.1313501,22.386838 14.3371464,21.5341957 C8.51641102,19.7485288 6.82787888,18.8079822 6.82787888,15.9912096 C6.82787888,12.8536452 10.8573273,11.73729 14.3068301,11.73729 C16.8190045,11.73729 19.7092585,12.5276913 21.5041893,13.6990605 L25.0627143,8.12215159 C22.7168425,6.58323624 19.5062265,5.5335467 16.335838,5.2077403 L16.335838,0 L9.77147795,0 L9.77147795,5.57292665 C3.93631313,6.87187505 0.260458087,10.7311102 0.260458087,15.9912096 C0.260458087,19.6750785 1.77321382,22.5965694 4.74814947,24.6571584 C7.01079712,26.2302916 9.77031193,27.0749694 12.4359627,27.8928039 C18.1453439,29.6390909 20.4638144,30.7032345 20.4374334,34.2273713 L20.4372876,34.2533296 C20.4372876,37.2112506 16.5636477,38.26271 13.2450298,38.26271 C10.1102046,38.26271 6.70122075,36.872465 4.7688462,34.8053864 L0,39.3700683 C2.44716916,41.9892037 6.00263339,43.8409463 9.7713322,44.5667468 L9.7713322,50 L16.335838,50 L16.335838,44.6837067 C22.8198888,43.7444875 26.9931941,39.7942508 26.9996071,34.2685211 Z" id="Path"></path>
            </g>
        </g>
    </g>
</svg>