<?xml version="1.0" encoding="UTF-8"?>
<svg width="27px" height="20px" viewBox="0 0 27 20" version="1.1" xmlns="http://www.w3.org/2000/svg" xmlns:xlink="http://www.w3.org/1999/xlink">
    <title>export-icon-gray-fail</title>
    <defs>
        <polygon id="path-1" points="0.0002 -5e-05 18.061 -5e-05 18.061 18.1408 0.0002 18.1408"></polygon>
    </defs>
    <g id="Page-1" stroke="none" stroke-width="1" fill="none" fill-rule="evenodd">
        <g id="agent-list-page-v.2" transform="translate(-1030.000000, -383.000000)">
            <g id="export-icon-gray-fail" transform="translate(1030.769531, 383.000000)">
                <g id="Group-2" stroke-width="1" transform="translate(0.000000, 1.000000)">
                    <g id="icon/export/static">
                        <mask id="mask-2" fill="white">
                            <use xlink:href="#path-1"></use>
                        </mask>
                        <g id="Clip-2"></g>
                        <path d="M15.9292,5.7262 L11.5062,5.7262 C11.3412,5.7262 11.2062,5.8602 11.2062,6.0262 L11.2062,6.9262 C11.2062,7.0922 11.3412,7.2262 11.5062,7.2262 L15.9292,7.2262 C16.2782,7.2262 16.5612,7.5092 16.5612,7.8582 L16.5612,16.0092 C16.5612,16.3572 16.2782,16.6412 15.9292,16.6412 L2.1322,16.6412 C1.7832,16.6412 1.5002,16.3572 1.5002,16.0082 L1.5002,7.8582 C1.5002,7.5092 1.7832,7.2262 2.1322,7.2262 L8.2802,7.2262 L8.2802,11.8472 C8.2802,12.0292 8.4282,12.1782 8.6102,12.1782 L9.4502,12.1782 C9.6322,12.1782 9.7802,12.0292 9.7802,11.8472 L9.7802,2.6732 L11.6212,4.5142 C11.7702,4.6632 12.0102,4.6632 12.1582,4.5142 L12.6822,3.9912 C12.8302,3.8422 12.8302,3.6022 12.6822,3.4542 L9.3672,0.1402 C9.1812,-0.0468 8.8792,-0.0468 8.6932,0.1402 L5.3792,3.4542 C5.2302,3.6022 5.2302,3.8422 5.3792,3.9912 L5.9022,4.5142 C6.0512,4.6632 6.2912,4.6632 6.4392,4.5142 L8.2802,2.6732 L8.2802,5.7262 L2.1322,5.7262 C0.9542,5.7262 0.0002,6.6812 0.0002,7.8582 L0.0002,16.0082 C0.0002,17.1852 0.9542,18.1412 2.1322,18.1412 L15.9282,18.1412 C17.1062,18.1412 18.0612,17.1852 18.0612,16.0082 L18.0612,7.8582 C18.0612,6.6812 17.1072,5.7262 15.9292,5.7262" id="Fill-1" fill="#919192" mask="url(#mask-2)"></path>
                    </g>
                </g>
                <path d="M13.2304687,6.075 C13.2304687,2.72 15.9504687,-1.15463195e-14 19.3054687,-1.15463195e-14 C22.6604687,-1.15463195e-14 25.3794687,2.72 25.3794687,6.075 C25.3794687,9.43 22.6604687,12.15 19.3054687,12.15 C15.9504687,12.15 13.2304687,9.43 13.2304687,6.075" id="Fill-5" fill="#CB2121"></path>
                <g id="Group-4" stroke-width="1" transform="translate(17.230469, 4.000000)" stroke="#FEFEFE" stroke-linecap="round" stroke-linejoin="round">
                    <line x1="3.28626015e-14" y1="3.979" x2="3.978" y2="-3.19744231e-13" id="Stroke-7" stroke-width="1.5"></line>
                    <line x1="3.26405569e-14" y1="3.979" x2="3.978" y2="-3.19744231e-13" id="Stroke-7" stroke-width="1.5" transform="translate(1.989000, 1.989500) scale(-1, 1) translate(-1.989000, -1.989500) "></line>
                </g>
            </g>
        </g>
    </g>
</svg>