<?xml version="1.0" encoding="UTF-8"?>
<svg width="18px" height="18px" viewBox="0 0 18 18" version="1.1" xmlns="http://www.w3.org/2000/svg" xmlns:xlink="http://www.w3.org/1999/xlink">
    <!-- Generator: Sketch 58 (84663) - https://sketch.com -->
    <title>Stroke 1</title>
    <desc>Created with Sketch.</desc>
    <g id="Page-1" stroke="none" stroke-width="1" fill="none" fill-rule="evenodd" stroke-linecap="round" stroke-linejoin="round">
        <g id="Filter-flow4-v.2" transform="translate(-1053.000000, -298.000000)" fill="#4E4E4E" stroke="#4E4E4E" stroke-width="1.5">
            <path d="M1069.39301,299 C1065.55514,299 1062.67674,299 1060.75781,299 C1059.39096,299 1057.34069,299 1054.60699,299 C1054.09582,299 1053.81421,299.594391 1054.13842,299.989863 L1059.79795,306.889301 C1060.19198,307.370023 1060.40733,307.970335 1060.40733,308.591959 L1060.40733,313.070022 C1060.40733,313.157642 1060.44638,313.238157 1060.51619,313.290255 L1062.63541,314.879245 C1063.03062,315.175257 1063.59385,314.893454 1063.59385,314.398522 L1063.59385,308.591959 C1063.59385,307.970335 1063.80802,307.370023 1064.20205,306.889301 L1069.86158,299.989863 C1070.18579,299.594391 1069.90418,299 1069.39301,299 Z" id="Stroke-1"></path>
        </g>
    </g>
</svg>