<?xml version="1.0" encoding="UTF-8"?>
<svg width="50px" height="50px" viewBox="0 0 50 50" version="1.1" xmlns="http://www.w3.org/2000/svg" xmlns:xlink="http://www.w3.org/1999/xlink">
    <!-- Generator: Sketch 58 (84663) - https://sketch.com -->
    <title>github</title>
    <desc>Created with Sketch.</desc>
    <g id="Page-1" stroke="none" stroke-width="1" fill="none" fill-rule="evenodd">
        <g id="github" fill="#000000" fill-rule="nonzero">
            <path d="M46.5981777,12.7707459 C44.3649203,8.85512821 41.3356492,5.75512821 37.5095672,3.47004662 C33.6829157,1.18484848 29.5053531,0.0425407925 24.973918,0.0425407925 C20.4430524,0.0425407925 16.264123,1.18519814 12.4382688,3.47004662 C8.6118451,5.75501166 5.58268793,8.85512821 3.34943052,12.7707459 C1.11651481,16.6862471 0,20.9620047 0,25.5979021 C0,31.1666667 1.58769932,36.1742424 4.76389522,40.6219114 C7.93974943,45.0699301 12.0424829,48.1477855 17.071754,49.8558275 C17.6571754,49.9670163 18.0905467,49.8888112 18.3723235,49.6231935 C18.6542141,49.3572261 18.7949886,49.0241259 18.7949886,48.6252914 C18.7949886,48.5587413 18.7894077,47.9600233 18.7785877,46.8284382 C18.767426,45.6968531 18.7621868,44.7096737 18.7621868,43.867366 L18.0142369,43.9997669 C17.5373576,44.0891608 16.9357631,44.1270396 16.2094533,44.116317 C15.4834852,44.1059441 14.7298405,44.0280886 13.9495444,43.8833333 C13.1689066,43.7398601 12.4428246,43.4071096 11.7707289,42.8857809 C11.0989749,42.3644522 10.6220957,41.6820513 10.340205,40.839627 L10.0150342,40.0738928 C9.79829157,39.5641026 9.4570615,38.9977855 8.99088838,38.3770396 C8.52471526,37.755711 8.05330296,37.3344988 7.57642369,37.112704 L7.34874715,36.9459207 C7.19703872,36.8350816 7.05626424,36.7013986 6.926082,36.5462704 C6.79601367,36.3911422 6.69863326,36.2358974 6.63359909,36.0804196 C6.56845103,35.9248252 6.62243736,35.7972028 6.79612756,35.6970862 C6.96981777,35.5969697 7.28371298,35.5483683 7.73917995,35.5483683 L8.38929385,35.6477855 C8.82289294,35.7367133 9.35922551,36.002331 9.99897494,36.4462704 C10.6383827,36.8898601 11.1640091,37.4665501 11.5759681,38.1761072 C12.0748292,39.0858974 12.6758542,39.7791375 13.3807517,40.2561772 C14.0850797,40.7332168 14.7952164,40.9713287 15.5104784,40.9713287 C16.2257403,40.9713287 16.843508,40.9158508 17.3640091,40.8054779 C17.8839408,40.6945221 18.371754,40.5277389 18.827221,40.3060606 C19.0223235,38.8191142 19.5535308,37.6768065 20.4203872,36.8783217 C19.1848519,36.7454545 18.0740319,36.545338 17.0873576,36.2792541 C16.1012528,36.0128205 15.0822323,35.5804196 14.0309795,34.9808858 C12.9791572,34.3821678 12.1066059,33.6386946 11.4130979,32.7517483 C10.7194761,31.8643357 10.1502278,30.6993007 9.70615034,29.2576923 C9.2618451,27.8155012 9.03963554,26.1518648 9.03963554,24.266317 C9.03963554,21.5815851 9.89612756,19.2969697 11.6087699,17.4111888 C10.806492,15.3927739 10.8822323,13.1300699 11.8362187,10.62331 C12.4649203,10.4234266 13.3972665,10.5734266 14.6328018,11.0723776 C15.8685649,11.5715618 16.7733485,11.9991841 17.3480638,12.3537296 C17.922779,12.7081585 18.3832574,13.0085082 18.7301822,13.2520979 C20.746697,12.6755245 22.8276765,12.3871795 24.9736902,12.3871795 C27.1197039,12.3871795 29.201139,12.6755245 31.2177677,13.2520979 L32.4534169,12.4538462 C33.2984055,11.9212121 34.2962415,11.4331002 35.444533,10.9893939 C36.593508,10.5459207 37.4720957,10.4237762 38.079385,10.6236597 C39.0545558,13.1305361 39.1414579,15.3931235 38.3389522,17.4115385 C40.0514806,19.2973193 40.9083144,21.5825175 40.9083144,24.2666667 C40.9083144,26.1522145 40.6853075,27.8210956 40.2416856,29.274359 C39.7974943,30.7278555 39.2233485,31.8917249 38.5190205,32.7684149 C37.8138952,33.6449883 36.9357631,34.382634 35.8845103,34.9812354 C34.8330296,35.580303 33.8136674,36.012704 32.8275626,36.2791375 C31.8410023,36.5455711 30.7301822,36.7458042 29.4946469,36.8789044 C30.6215262,37.8768065 31.1850797,39.4519814 31.1850797,41.6037296 L31.1850797,48.624359 C31.1850797,49.0231935 31.320615,49.3561772 31.5919134,49.6222611 C31.8628702,49.8878788 32.2907745,49.9660839 32.8761959,49.8547786 C37.9061503,48.1469697 42.0088838,45.0689977 45.1846241,40.620979 C48.3600228,36.17331 49.9482916,31.1657343 49.9482916,25.5969697 C49.9471526,20.961655 48.8300683,16.6862471 46.5981777,12.7707459 Z" id="Path"></path>
        </g>
    </g>
</svg>