<svg id="Layer_1" data-name="Layer 1" xmlns="http://www.w3.org/2000/svg" viewBox="0 0 15 15">
  <defs>
    <style>
      .cls-1 {
        fill: #4e4e4e;
      }
    </style>
  </defs>
  <path class="cls-1" d="M7.66.18A5.91,5.91,0,0,0,4.25,9.36L.19,13.41a.61.61,0,0,0,0,.85l.58.57a.6.6,0,0,0,.84,0l4.05-4.05L6.74,9.69a.42.42,0,0,0,0-.63A3.92,3.92,0,0,1,8.13,2.12,4,4,0,0,1,13,5.94a3.89,3.89,0,0,1-3.6,3.92h0a1.62,1.62,0,0,0-1,.47l-.65.81a.39.39,0,0,0,.23.62,5.65,5.65,0,0,0,3.47-.41A5.92,5.92,0,0,0,7.66.18Z"/>
</svg>
