<?xml version="1.0" encoding="UTF-8"?>
<svg width="19px" height="19px" viewBox="0 0 19 19" version="1.1" xmlns="http://www.w3.org/2000/svg" xmlns:xlink="http://www.w3.org/1999/xlink">
    <!-- Generator: Sketch 52.6 (67491) - http://www.bohemiancoding.com/sketch -->
    <title>icon/import/accent-green</title>
    <desc>Created with Sketch.</desc>
    <defs>
        <polygon id="path-1" points="0.0002 0.0002 18.061 0.0002 18.061 18.1407 0.0002 18.1407"></polygon>
    </defs>
    <g id="Page-1" stroke="none" stroke-width="1" fill="none" fill-rule="evenodd">
        <g id="agent-list-page:-hover-export" transform="translate(-260.000000, -405.000000)">
            <g id="Group" transform="translate(260.000000, 405.500000)">
                <g id="icon/import/accent-green">
                    <g>
                        <mask id="mask-2" fill="white">
                            <use xlink:href="#path-1"></use>
                        </mask>
                        <g id="Clip-2"></g>
                        <path d="M15.9292,4.2042 L11.5062,4.2042 C11.3412,4.2042 11.2062,4.3382 11.2062,4.5042 L11.2062,5.4042 C11.2062,5.5692 11.3412,5.7042 11.5062,5.7042 L15.9292,5.7042 C16.2782,5.7042 16.5612,5.9872 16.5612,6.3362 L16.5612,16.0092 C16.5612,16.3572 16.2782,16.6412 15.9292,16.6412 L2.1322,16.6412 C1.7832,16.6412 1.5002,16.3572 1.5002,16.0082 L1.5002,6.3362 C1.5002,5.9872 1.7832,5.7042 2.1322,5.7042 L8.2812,5.7042 L8.2812,9.5042 L6.4392,7.6632 C6.2912,7.5152 6.0512,7.5152 5.9022,7.6632 L5.3792,8.1862 C5.2302,8.3352 5.2302,8.5752 5.3792,8.7242 L8.6932,12.0372 C8.8802,12.2242 9.1812,12.2242 9.3682,12.0372 L12.6822,8.7242 C12.8302,8.5752 12.8302,8.3352 12.6822,8.1862 L12.1582,7.6632 C12.0102,7.5152 11.7702,7.5152 11.6212,7.6632 L9.7812,9.5042 L9.7812,0.3302 C9.7812,0.1472 9.6332,0.0002 9.4502,0.0002 L8.6112,0.0002 C8.4292,0.0002 8.2812,0.1472 8.2812,0.3302 L8.2812,4.2042 L2.1322,4.2042 C0.9542,4.2042 0.0002,5.1592 0.0002,6.3362 L0.0002,16.0082 C0.0002,17.1852 0.9542,18.1412 2.1322,18.1412 L15.9282,18.1412 C17.1062,18.1412 18.0612,17.1852 18.0612,16.0082 L18.0612,6.3362 C18.0612,5.1582 17.1072,4.2042 15.9292,4.2042" id="Fill-1" fill="#00BD6F" mask="url(#mask-2)"></path>
                    </g>
                </g>
            </g>
        </g>
    </g>
</svg>