<svg xmlns="http://www.w3.org/2000/svg" viewBox="0 0 9.71 14.2">
    <defs>
        <style>.cls-1{fill:#4e4e4e;}</style>
    </defs>
    <title>location-icon</title>
    <g id="Layer_2" data-name="Layer 2">
        <g id="Layer_1-2" data-name="Layer 1">
            <path class="cls-1" d="M4.86,14.2a.75.75,0,0,1-.63-.34C3.79,13.19,0,7.28,0,4.86a4.86,4.86,0,1,1,9.71,0c0,2.42-3.79,8.33-4.23,9A.73.73,0,0,1,4.86,14.2Zm0-12.7A3.37,3.37,0,0,0,1.5,4.86C1.5,6.15,3.36,9.61,4.86,12,6.35,9.61,8.21,6.15,8.21,4.86A3.36,3.36,0,0,0,4.86,1.5Z" />
            <path class="cls-1" d="M4.86,14.2a.75.75,0,0,1-.63-.34C3.79,13.19,0,7.28,0,4.86H1.5C1.5,6.15,3.36,9.61,4.86,12,6.35,9.61,8.21,6.15,8.21,4.86h1.5c0,2.42-3.79,8.33-4.23,9A.73.73,0,0,1,4.86,14.2Z" />
            <circle class="cls-1" cx="4.86" cy="4.86" r="1.37" />
        </g>
    </g>
</svg>