<?xml version="1.0" encoding="UTF-8"?>
<svg width="18px" height="16px" viewBox="0 0 18 16" version="1.1" xmlns="http://www.w3.org/2000/svg" xmlns:xlink="http://www.w3.org/1999/xlink">
    <!-- Generator: Sketch 55.2 (78181) - https://sketchapp.com -->
    <title>Group 8</title>
    <desc>Created with Sketch.</desc>
    <defs>
        <polygon id="path-1" points="0 0.95502827 13.195286 0.95502827 13.195286 16 0 16"></polygon>
    </defs>
    <g id="Page-1" stroke="none" stroke-width="1" fill="none" fill-rule="evenodd">
        <g id="User-dropdown---click-open" transform="translate(-41.000000, -746.000000)">
            <g id="Group-8" transform="translate(41.000000, 745.500000)">
                <g id="Group-3" transform="translate(0.000000, 0.044900)">
                    <mask id="mask-2" fill="white">
                        <use xlink:href="#path-1"></use>
                    </mask>
                    <g id="Clip-2"></g>
                    <path d="M7.5224,16 C2.9494,16 -0.6846,11.897 0.1094,7.18 C0.5854,4.348 2.7134,1.976 5.4854,1.228 C8.2944,0.469 11.1394,1.331 13.0164,3.339 C13.1904,3.526 13.1624,3.828 12.9644,3.991 L12.4984,4.376 C12.3144,4.528 12.0514,4.501 11.8864,4.328 C10.3334,2.693 7.9724,2.027 5.6684,2.738 C3.5914,3.379 2.0084,5.184 1.6084,7.32 C0.8914,11.146 3.8224,14.5 7.5224,14.5 C9.2134,14.5 10.8014,13.802 11.9404,12.569 C12.1024,12.395 12.3664,12.363 12.5514,12.513 L13.0244,12.893 C13.2234,13.052 13.2554,13.354 13.0844,13.542 C11.6584,15.11 9.6564,16 7.5224,16" id="Fill-1" fill="#4E4E4E" mask="url(#mask-2)"></path>
                </g>
                <path d="M16.0781,9.2724 L7.9381,9.2724 C7.7081,9.2724 7.5221,9.0864 7.5221,8.8564 L7.5221,8.1884 C7.5221,7.9584 7.7081,7.7724 7.9381,7.7724 L16.0781,7.7724 C16.3071,7.7724 16.4931,7.9584 16.4931,8.1884 L16.4931,8.8564 C16.4931,9.0864 16.3071,9.2724 16.0781,9.2724" id="Fill-4" fill="#4E4E4E"></path>
                <path d="M14.1894,11.6426 L13.6874,11.1996 C13.5154,11.0476 13.4994,10.7856 13.6504,10.6136 L15.2484,8.8006 C15.3864,8.6426 15.3864,8.4066 15.2474,8.2496 L13.5364,6.3246 C13.3834,6.1526 13.3984,5.8906 13.5704,5.7376 L14.0704,5.2936 C14.2424,5.1416 14.5034,5.1566 14.6574,5.3286 L17.2514,8.2456 C17.3904,8.4026 17.3904,8.6386 17.2524,8.7966 L14.7754,11.6056 C14.6244,11.7776 14.3614,11.7936 14.1894,11.6426" id="Fill-6" fill="#4E4E4E"></path>
            </g>
        </g>
    </g>
</svg>