<svg xmlns="http://www.w3.org/2000/svg" viewBox="0 0 13.82 14.95">
    <defs>
        <style>.cls-1{fill:#4e4e4e;}</style>
    </defs>
    <title>play-icon</title>
    <g id="Layer_2" data-name="Layer 2">
        <g id="Layer_1-2" data-name="Layer 1">
            <path class="cls-1" d="M12.87,5.87,2.71.23A1.85,1.85,0,0,0,.9.25,1.85,1.85,0,0,0,0,1.82H0V13.13A1.85,1.85,0,0,0,.9,14.7a1.93,1.93,0,0,0,.93.25,1.83,1.83,0,0,0,.88-.23L12.88,9.08a1.84,1.84,0,0,0,0-3.21Zm-.72,1.9L2,13.41a.35.35,0,0,1-.33,0,.32.32,0,0,1-.16-.28V1.83a.34.34,0,0,1,.16-.29.35.35,0,0,1,.33,0L12.14,7.18a.33.33,0,0,1,.18.29A.35.35,0,0,1,12.15,7.77Z" />
        </g>
    </g>
</svg>