<?xml version="1.0" encoding="UTF-8"?>
<svg width="48px" height="50px" viewBox="0 0 48 50" version="1.1" xmlns="http://www.w3.org/2000/svg" xmlns:xlink="http://www.w3.org/1999/xlink">
    <!-- Generator: Sketch 54.1 (76490) - https://sketchapp.com -->
    <title>musical-note</title>
    <desc>Created with Sketch.</desc>
    <g id="Page-1" stroke="none" stroke-width="1" fill="none" fill-rule="evenodd">
        <g id="prebuilt-category:-step2" transform="translate(-290.000000, -737.000000)" fill="#303F9F" fill-rule="nonzero">
            <g id="musical-note" transform="translate(290.000000, 737.000000)">
                <path d="M48,2.27084995 C48,1.53442794 47.6433998,0.84575959 47.039998,0.420761767 C46.4365963,-0.00648213817 45.6662377,-0.113317528 44.9668848,0.123009386 L15.2525898,10.3506914 C14.3314789,10.6666077 13.7143278,11.5302752 13.7143278,12.4985319 L13.7143278,33.0811413 C12.3634504,32.2993094 10.8160549,31.8174759 9.14285247,31.8174759 C4.10055877,31.8174759 0,35.8948965 0,40.908738 C0,45.9225795 4.10055877,50 9.14285247,50 C13.7920119,50 17.6000033,46.5180842 18.1691298,42.0451579 L18.2857049,42.0451579 L18.2857049,14.1167854 L43.4286229,5.46184923 L43.4286229,26.2627192 C42.0777454,25.4808873 40.5303499,24.9990538 38.8571475,24.9990538 C33.8148538,24.9990538 29.7142951,29.0764744 29.7142951,34.0903159 C29.7142951,39.1041574 33.8148538,43.1815779 38.8571475,43.1815779 C43.8971824,43.1815779 48,39.1041574 48,34.0903159 C48,33.701646 47.9314495,33.3312377 47.8834248,32.9538959 L48,32.9538959 L48,2.27084995 L48,2.27084995 Z M9.14285247,45.4544178 C6.62170562,45.4544178 4.57137713,43.4156587 4.57137713,40.908738 C4.57137713,38.4018172 6.62170562,36.3630581 9.14285247,36.3630581 C11.6639993,36.3630581 13.7143278,38.4018172 13.7143278,40.908738 C13.7143278,43.4156587 11.6639993,45.4544178 9.14285247,45.4544178 Z M38.8571475,38.6358981 C36.3360007,38.6358981 34.2856722,36.597139 34.2856722,34.0902182 C34.2856722,31.5832975 36.3360007,29.5445384 38.8571475,29.5445384 C41.3782944,29.5445384 43.4286229,31.5832975 43.4286229,34.0902182 C43.4286229,36.597139 41.3782944,38.6358981 38.8571475,38.6358981 Z" id="Shape"></path>
            </g>
        </g>
    </g>
</svg>