<?xml version="1.0" encoding="UTF-8"?>
<svg width="50px" height="50px" viewBox="0 0 50 50" version="1.1" xmlns="http://www.w3.org/2000/svg" xmlns:xlink="http://www.w3.org/1999/xlink">
    <!-- Generator: Sketch 58 (84663) - https://sketch.com -->
    <title>news 2</title>
    <desc>Created with Sketch.</desc>
    <g id="Page-1" stroke="none" stroke-width="1" fill="none" fill-rule="evenodd">
        <g id="news" fill-rule="nonzero">
            <path d="M44.0233786,49.0196078 L6.09917044,49.0196078 L5.75037707,48.9313725 C4.85025517,48.834338 3.98962452,48.496581 3.25226244,47.9509804 C1.70053373,46.7078026 0.836759229,44.7498197 0.942684766,42.7156863 C0.942684766,31.6960784 0.942684766,16.4117647 0.942684766,5.39215686 L0.942684766,1.47058824 C0.914690389,1.18529555 1.00820766,0.901558872 1.19860262,0.694119026 C1.38899759,0.48667918 1.65717908,0.37633644 1.93250377,0.392156863 L41.2047511,0.392156863 C41.7253816,0.392156863 42.1474359,0.831093383 42.1474359,1.37254902 L42.1474359,10.1960784 C42.1474359,10.7375341 42.5694902,11.1764706 43.0901207,11.1764706 L46.8042986,11.1764706 C47.1388927,11.1573607 47.466059,11.2838177 47.707437,11.5255533 C47.948815,11.7672889 48.0826632,12.1025294 48.0771004,12.4509804 L48.0771004,43.9411765 C48.0335715,44.0758741 47.9989291,44.2134359 47.9732278,44.3529412 C47.8323541,45.6594555 47.2670151,46.8768632 46.3706637,47.8039216 C45.690607,48.3947862 44.8865726,48.8112049 44.0233786,49.0196078 Z M4.65686275,3.46072218 C4.45772221,3.45816251 4.26586872,3.53860352 4.12416093,3.68413742 C3.98245314,3.82967132 3.90271493,4.02817137 3.90271493,4.23529412 C3.90271493,5.55882353 3.90271493,8.10784314 3.90271493,8.15686275 C3.90271493,18.245098 3.90271493,32.7156863 3.90271493,42.7941176 C3.90790982,44.5337749 5.26540445,45.9411765 6.93815988,45.9411765 C17.904726,45.9411765 28.8681498,45.9411765 39.8284314,45.9411765 C39.9321267,45.9411765 40.0452489,45.9411765 40.2149321,45.9411765 C39.5100779,44.9396228 39.1754496,43.7076555 39.2722474,42.4705882 C39.2722474,32.6666667 39.2722474,18.627451 39.2722474,8.76470588 L39.2722474,4.23529412 C39.2722633,4.02817137 39.1925092,3.82967132 39.0508014,3.68413742 C38.9090936,3.53860352 38.7172401,3.45816251 38.5180995,3.46072218 L4.65686275,3.46072218 Z" id="Shape" fill="#E03B3B"></path>
            <rect id="Rectangle" fill="#E03B3B" x="6.87217195" y="12.7745098" width="13.1975867" height="15.254902" rx="0.254901961"></rect>
            <rect id="Rectangle" fill="#E03B3B" x="6.87217195" y="6.65686275" width="29.392911" height="3.00980392" rx="0.254901961"></rect>
            <rect id="Rectangle" fill="#E03B3B" x="6.87217195" y="31.4313725" width="29.392911" height="3.00980392" rx="0.254901961"></rect>
            <rect id="Rectangle" fill="#E03B3B" x="6.87217195" y="36.7352941" width="29.392911" height="3.00980392" rx="0.254901961"></rect>
            <rect id="Rectangle" fill="#E03B3B" x="23.0580694" y="12.7843137" width="13.1975867" height="3.00980392" rx="0.254901961"></rect>
            <rect id="Rectangle" fill="#E03B3B" x="23.0769231" y="18.9117647" width="13.1975867" height="3.00980392" rx="0.254901961"></rect>
            <rect id="Rectangle" fill="#E03B3B" x="23.0580694" y="25.0392157" width="10.2658371" height="3" rx="0.254901961"></rect>
            <path d="M10.6806184,17.0784314 C10.6856369,16.9794023 10.7643762,16.9018233 10.8597285,16.9019606 L11.1048265,16.9019606 L14.8755656,20.6960784 L14.8755656,20.6960784 L14.8755656,17.1862745 C14.8755656,17.0833979 14.9557559,17 15.0546757,17 L16.1953243,17 C16.2922152,17.0049241 16.3696997,17.085508 16.3744344,17.1862745 L16.3744344,23.8333333 C16.3694159,23.9323624 16.2906766,24.0099414 16.1953243,24.0098039 L16.0444947,24.0098039 C16.0041714,24.0194488 15.962269,24.0194488 15.9219457,24.0098039 L12.1512066,20.0882353 L12.1512066,20.0882353 L12.1512066,23.7254902 C12.1461791,23.8299347 12.0632228,23.9118955 11.9626697,23.9117647 L10.831448,23.9117647 C10.7345571,23.9068406 10.6570726,23.8262567 10.6523379,23.7254902 L10.6806184,17.0784314 Z" id="Path" fill="#FFFFFF"></path>
        </g>
    </g>
</svg>