<?xml version="1.0" encoding="UTF-8"?>
<svg width="19px" height="14px" viewBox="0 0 19 14" version="1.1" xmlns="http://www.w3.org/2000/svg" xmlns:xlink="http://www.w3.org/1999/xlink">
    <g id="Artboard" stroke="none" stroke-width="1" fill="none" fill-rule="evenodd">
        <g id="quick-response-icon" transform="translate(0.000000, 0.500000)" fill="#4E4E4E" fill-rule="nonzero">
            <path d="M14.9388299,2.69528361 C14.5221934,2.43288735 13.9646369,2.54702668 13.6934926,2.95022094 C13.4223482,3.3534152 13.5402928,3.89298292 13.9569293,4.15537919 C14.9844875,4.78248261 15.4573049,5.99328309 15.1151255,7.1213112 C14.772946,8.24933931 13.6988576,9.0206872 12.4840784,9.01077641 L4.29359041,9.01077641 C2.85906464,8.91868625 1.74413803,7.76578657 1.74413803,6.37449272 C1.74413803,4.98319887 2.85906464,3.83029918 4.29359041,3.73820903 L6.96388108,3.73820903 C7.45987687,3.73820903 7.8619609,3.34909768 7.8619609,2.86910451 C7.8619609,2.38911134 7.45987687,2 6.96388108,2 L4.29359041,2 C1.88740935,2.1198866 0,4.04285961 0,6.37449272 C0,8.70612583 1.88740935,10.6290988 4.29359041,10.7489854 L9.76589013,10.7489854 L9.76589013,12.7421318 C9.76474328,12.8387004 9.82008096,12.9276058 9.90882721,12.9717742 C9.99757345,13.0159426 10.1044907,13.0077903 10.184994,12.9507169 L12.4840784,10.7142213 L12.4840784,10.7142213 C14.4866996,10.709613 16.2481471,9.43202685 16.8147171,7.57318874 C17.3812871,5.71435063 16.6182872,3.71616747 14.9388299,2.66051943 L14.9388299,2.69528361 Z" id="Path"></path>
            <path d="M9.90777858,3.71957239 L10.3125307,3.71957239 L9.56626897,4.67735068 C9.37566284,4.94053741 9.36057676,5.27676939 9.52698147,5.55297315 C9.69338619,5.82917691 10.0144585,6.00083043 10.3631247,6 C10.7041335,6.0008141 11.0207792,5.84079278 11.197926,5.57811835 L12.8675286,3.29769386 C13.0441571,3.02669646 13.0441571,2.69072784 12.8675286,2.41973043 C12.7027288,2.17515001 12.4131432,2.02108779 12.0959698,2.00925403 L11.7418117,2.00925403 L12.3489399,1.22250758 C12.5461882,0.848701673 12.4181194,0.401208996 12.0448817,0.160080076 C11.6716439,-0.081048845 11.1604093,-0.0465758817 10.8311194,0.241925045 L9.13621982,2.36271982 C8.95459339,2.63656857 8.95459339,2.97823663 9.13621982,3.25208537 C9.28127988,3.52177431 9.57598186,3.70033407 9.90777858,3.71957239 Z" id="Path"></path>
        </g>
    </g>
</svg>