<svg xmlns="http://www.w3.org/2000/svg" viewBox="0 0 14.39 11.25">
    <defs>
        <style>.cls-1{fill:#4e4e4e;}</style>
    </defs>
    <title>quick-response-icon</title>
    <g id="Layer_2" data-name="Layer 2">
        <g id="Layer_1-2" data-name="Layer 1">
            <path class="cls-1" d="M12.66,2.33a.75.75,0,0,0-.82,1.26,2.27,2.27,0,0,1-1.23,4.19H3.77a2.28,2.28,0,0,1,0-4.55H6a.75.75,0,0,0,0-1.5H3.77a3.78,3.78,0,0,0,0,7.55H8.34V11a.22.22,0,0,0,.35.18l1.92-1.93h0a3.78,3.78,0,0,0,2.05-6.95Z" />
            <path class="cls-1" d="M8.27,3.37h.32L8,4.21a.75.75,0,0,0,.63,1.16A.77.77,0,0,0,9.29,5l1.32-2a.76.76,0,0,0,0-.77A.75.75,0,0,0,10,1.87H9.72l.48-.69A.75.75,0,0,0,9,.32L7.66,2.18a.76.76,0,0,0,0,.78A.73.73,0,0,0,8.27,3.37Z" />
        </g>
    </g>
</svg>