<?xml version="1.0" encoding="UTF-8"?>
<svg width="13px" height="17px" viewBox="0 0 13 17" version="1.1" xmlns="http://www.w3.org/2000/svg" xmlns:xlink="http://www.w3.org/1999/xlink">
    <!-- Generator: Sketch 55.2 (78181) - https://sketchapp.com -->
    <title>Group 10</title>
    <desc>Created with Sketch.</desc>
    <defs>
        <polygon id="path-1" points="0.16515 0.626 3.5669 0.626 3.5669 5.92815 0.16515 5.92815"></polygon>
    </defs>
    <g id="Page-1" stroke="none" stroke-width="1" fill="none" fill-rule="evenodd" opacity="0.602934338">
        <g id="Review-page&lt;-log-tab" transform="translate(-1048.000000, -316.000000)">
            <g id="Group-10" transform="translate(1048.000000, 315.000000)">
                <path d="M9.2822,14.7359 C7.7392,15.5319 6.0442,15.6679 4.5122,15.2189 L4.9352,13.7799 C5.3712,13.9079 5.8262,13.9729 6.2862,13.9729 C8.9252,13.9729 11.0722,11.8259 11.0722,9.1869 C11.0722,7.7919 10.4542,6.4609 9.4022,5.5559 C9.2402,5.4159 9.2022,5.1829 9.3282,5.0109 L9.7392,4.4469 C9.8752,4.2619 10.1452,4.2189 10.3212,4.3669 C12.7252,6.3839 13.4522,10.0819 11.2702,13.0349 C10.7482,13.7429 10.0642,14.3339 9.2822,14.7359" id="Fill-1" fill="#4E4E4E"></path>
                <path d="M2.5923,13.7418 C2.4473,13.9198 2.1753,13.9478 2.0073,13.7918 C0.7263,12.6038 0.0003,10.9478 0.0003,9.1868 C0.0003,5.7208 2.8203,2.9008 6.2863,2.9008 C6.7533,2.9008 7.2183,2.9518 7.6703,3.0538 L7.3403,4.5168 C6.9973,4.4398 6.6423,4.4008 6.2863,4.4008 C3.6473,4.4008 1.5003,6.5478 1.5003,9.1868 C1.5003,10.5078 2.0363,11.7518 2.9853,12.6528 C3.1393,12.8008 3.1663,13.0348 3.0313,13.1998 L2.5923,13.7418 Z" id="Fill-3" fill="#4E4E4E"></path>
                <g id="Group-7" transform="translate(5.000000, 0.374200)">
                    <mask id="mask-2" fill="white">
                        <use xlink:href="#path-1"></use>
                    </mask>
                    <g id="Clip-6"></g>
                    <path d="M0.7749,5.8104 L0.2829,5.3184 C0.1259,5.1614 0.1259,4.9064 0.2829,4.7494 L1.7559,3.2764 L0.2829,1.8044 C0.1259,1.6474 0.1259,1.3924 0.2829,1.2354 L0.7749,0.7434 C0.9319,0.5864 1.1869,0.5864 1.3429,0.7434 L3.3469,2.7464 C3.4869,2.8874 3.5669,3.0784 3.5669,3.2764 C3.5669,3.4754 3.4869,3.6664 3.3469,3.8074 L1.3429,5.8104 C1.1869,5.9674 0.9319,5.9674 0.7749,5.8104" id="Fill-5" fill="#4E4E4E" mask="url(#mask-2)"></path>
                </g>
                <path d="M5.9731,17.2564 L3.9701,15.2534 C3.6771,14.9604 3.6771,14.4854 3.9701,14.1934 L5.9731,12.1904 C6.1301,12.0324 6.3851,12.0324 6.5411,12.1904 L7.0341,12.6824 C7.1911,12.8394 7.1911,13.0934 7.0341,13.2504 L5.5611,14.7234 L7.0341,16.1954 C7.1911,16.3534 7.1911,16.6074 7.0341,16.7644 L6.5411,17.2564 C6.3851,17.4134 6.1301,17.4134 5.9731,17.2564" id="Fill-8" fill="#4E4E4E"></path>
            </g>
        </g>
    </g>
</svg>