<?xml version="1.0" encoding="UTF-8"?>
<svg width="15px" height="14px" viewBox="0 0 15 14" version="1.1" xmlns="http://www.w3.org/2000/svg" xmlns:xlink="http://www.w3.org/1999/xlink">
    <!-- Generator: Sketch 61.2 (89653) - https://sketch.com -->
    <title>Group 3</title>
    <desc>Created with Sketch.</desc>
    <defs>
        <polygon id="path-1" points="0.0003 0.0004 15.023 0.0004 15.023 13.5933 0.0003 13.5933"></polygon>
    </defs>
    <g id="Page-1" stroke="none" stroke-width="1" fill="none" fill-rule="evenodd">
        <g id="Response-Page-4-v.1:-dropdown-rich-response" transform="translate(-1004.000000, -481.000000)">
            <g id="Group-3" transform="translate(1004.000000, 481.000000)">
                <mask id="mask-2" fill="white">
                    <use xlink:href="#path-1"></use>
                </mask>
                <g id="Clip-2"></g>
                <path d="M11.1763,9.2964 L12.2893,6.0694 L13.2223,6.8784 L11.1763,9.2964 Z M1.5003,12.0934 L8.4093,12.0934 L8.4093,9.6474 L1.5003,9.6474 L1.5003,12.0934 Z M1.4993,8.1474 L8.4083,8.1474 L8.4083,1.5004 L1.4993,1.5004 L1.4993,8.1474 Z M11.6563,3.3074 L11.2423,4.5074 C11.2373,4.5234 11.2313,4.5384 11.2263,4.5544 L9.9083,8.3714 L9.9083,2.6764 L11.6563,3.3074 Z M14.7643,6.2304 L12.8183,4.5414 L13.3163,3.0974 C13.4493,2.7094 13.2473,2.2864 12.8613,2.1474 L9.9083,1.0824 L9.9083,0.7504 C9.9083,0.3364 9.5723,0.0004 9.1583,0.0004 L0.7503,0.0004 C0.3363,0.0004 0.0003,0.3364 0.0003,0.7504 L0.0003,12.8434 C0.0003,13.2574 0.3363,13.5934 0.7503,13.5934 L9.1583,13.5934 C9.2663,13.5934 9.3673,13.5684 9.4603,13.5274 C9.4843,13.5174 9.5023,13.4964 9.5263,13.4834 C9.5933,13.4444 9.6563,13.4014 9.7083,13.3454 C9.7153,13.3374 9.7253,13.3354 9.7313,13.3274 L14.8453,7.2814 C15.1113,6.9674 15.0743,6.4994 14.7643,6.2304 L14.7643,6.2304 Z" id="Fill-1" fill="#4E4E4E" mask="url(#mask-2)"></path>
            </g>
        </g>
    </g>
</svg>