<svg id="Layer_1" data-name="Layer 1" xmlns="http://www.w3.org/2000/svg" viewBox="0 0 15 15"><title>rich-resp-icon</title><path d="M9.82,9.67h-4V9.19a4.47,4.47,0,0,0,.87-.13c.23-.07.35-.15.35-.25a1,1,0,0,0,0-.15A.75.75,0,0,0,7,8.5L6.23,6.37H2.89c-.13.31-.23.59-.31.82s-.15.45-.21.64a4.06,4.06,0,0,0-.12.47,1.24,1.24,0,0,0,0,.3c0,.18.14.32.43.42a3.83,3.83,0,0,0,.95.17v.48H0V9.19a2.31,2.31,0,0,0,.44-.08,1.54,1.54,0,0,0,.43-.17,1.69,1.69,0,0,0,.41-.38A2.13,2.13,0,0,0,1.57,8c.48-1.19,1-2.54,1.59-4L4.7,0h.54L8.42,8.22a1.34,1.34,0,0,0,.23.43A1.57,1.57,0,0,0,9,9a1.51,1.51,0,0,0,.4.16,2,2,0,0,0,.42.07ZM6,5.77,4.54,2.07,3.12,5.77Z"/><path d="M14.19,3.78H9.82a.75.75,0,0,1,0-1.5h4.37a.75.75,0,0,1,0,1.5Z"/><path d="M14.19,8.25H10.68a.75.75,0,0,1,0-1.5h3.51a.75.75,0,0,1,0,1.5Z"/><path d="M14.19,13.45H.78a.75.75,0,1,1,0-1.5H14.19a.75.75,0,1,1,0,1.5Z"/></svg>