<?xml version="1.0" encoding="UTF-8"?>
<svg width="18px" height="17px" viewBox="0 0 18 17" version="1.1" xmlns="http://www.w3.org/2000/svg" xmlns:xlink="http://www.w3.org/1999/xlink">
    <!-- Generator: Sketch 50.2 (55047) - http://www.bohemiancoding.com/sketch -->
    <title>icon/intent</title>
    <desc>Created with Sketch.</desc>
    <defs></defs>
    <g id="Symbols" stroke="none" stroke-width="1" fill="none" fill-rule="evenodd">
        <g id="tab/sayings" transform="translate(-3.000000, -3.000000)" fill="#4E4E4E">
            <g transform="translate(2.000000, 2.000000)" id="icon/intent">
                <g transform="translate(0.921875, 0.800130)">
                    <g transform="translate(0.512695, 0.407550)" id="Shape">
                        <path d="M15.5796136,3.98602165 L12.1691509,3.98602165 L12.1691509,1.63885211 C12.1691509,0.913994642 11.5728965,0.326381564 10.8373793,0.326381564 L1.33177158,0.326381564 C0.596254447,0.326381564 3.47188641e-16,0.913994642 3.47188641e-16,1.63885211 L3.47188641e-16,11.8052906 C-0.00401974442,12.0328161 0.134908192,12.2391661 0.349191386,12.3239454 C0.563474579,12.4087248 0.808620343,12.3543303 0.965358236,12.1872265 L3.85438653,9.25673669 C4.00092645,9.1093994 4.2017095,9.02674353 4.41105296,9.02757517 L4.74928067,9.02757517 L4.74928067,11.381689 C4.74928067,12.1065465 5.34553511,12.6941595 6.08105225,12.6941595 L12.5073786,12.6941595 C12.7167221,12.6933279 12.9175051,12.7759838 13.064045,12.9233211 L15.9530733,15.8538109 C16.1141407,16.0199761 16.3632255,16.0696021 16.5771404,15.9781457 C16.7910552,15.8866894 16.9244628,15.673534 16.9113852,15.4440978 L16.9113852,5.2984922 C16.9113852,4.57363473 16.3151307,3.98602165 15.5796136,3.98602165 Z M15.7910059,11.381689 L15.7910059,13.7705243 C15.7926379,13.8222728 15.7617297,13.8696569 15.7132824,13.8896791 C15.664835,13.9097013 15.608877,13.898217 15.5725672,13.8608 L13.458644,11.7289034 C13.3932093,11.6668957 13.3133798,11.6215994 13.2261125,11.5969619 C13.172372,11.5892688 13.1177855,11.5892688 13.064045,11.5969619 L6.20084123,11.5969619 C6.01404322,11.5969619 5.86261352,11.4477269 5.86261352,11.2636361 L5.86261352,5.42348939 C5.86261352,5.33508588 5.89824812,5.25030314 5.96167812,5.18779242 C6.02510812,5.1252817 6.11113766,5.09016354 6.20084123,5.09016354 L10.2243416,5.09016354 C10.3216322,5.09016354 10.4005019,5.01243694 10.4005019,4.91655632 L10.4005019,4.16657316 C10.4005019,4.07069254 10.3216322,3.99296594 10.2243416,3.99296594 L6.07400584,3.99296594 C5.72079805,3.99296594 5.38205674,4.13124369 5.13230112,4.37737966 C4.8825455,4.62351564 4.74223426,4.95734765 4.74223426,5.30543648 L4.74223426,7.90260042 L3.84029371,7.90260042 C3.78655324,7.89490728 3.73196675,7.89490728 3.67822627,7.90260042 C3.5909589,7.92723792 3.51112949,7.97253418 3.44569473,8.0345419 L1.33177158,10.1664385 C1.29546173,10.2038555 1.23950379,10.2153398 1.1910564,10.1953176 C1.14260901,10.1752954 1.11170084,10.1279113 1.11333286,10.0761627 L1.11333286,1.74301644 C1.11333286,1.55892565 1.26476256,1.40969058 1.45156056,1.40969058 L10.7105439,1.40969058 C10.8973419,1.40969058 11.0487716,1.55892565 11.0487716,1.74301644 L11.0487716,3.98602165 L11.0487716,5.09016354 L11.0487716,7.55538599 C11.0487716,7.73947677 10.8973419,7.88871184 10.7105439,7.88871184 L6.68704355,7.88871184 C6.58975292,7.88871184 6.51088329,7.96643844 6.51088329,8.06231906 L6.51088329,8.81924651 C6.51088329,8.91512713 6.58975292,8.99285373 6.68704355,8.99285373 L10.8373793,8.99285373 C11.1905871,8.99285373 11.5293284,8.85457598 11.779084,8.60844001 C12.0288397,8.36230403 12.1691509,8.02847201 12.1691509,7.68038318 L12.1691509,5.09016354 L15.4527782,5.09016354 C15.6395762,5.09016354 15.7910059,5.23939861 15.7910059,5.42348939 L15.7910059,11.381689 Z" fill-rule="nonzero"></path>
                    </g>
                </g>
            </g>
        </g>
    </g>
</svg>