<?xml version="1.0" encoding="UTF-8"?>
<svg width="15px" height="15px" viewBox="0 0 15 15" version="1.1" xmlns="http://www.w3.org/2000/svg" xmlns:xlink="http://www.w3.org/1999/xlink">
    <!-- Generator: Sketch 55.2 (78181) - https://sketchapp.com -->
    <title>Group 11</title>
    <desc>Created with Sketch.</desc>
    <defs>
        <polygon id="path-1" points="0 15.0024 15 15.0024 15 0.0004 0 0.0004"></polygon>
    </defs>
    <g id="Page-1" stroke="none" stroke-width="1" fill="none" fill-rule="evenodd">
        <g id="Training-Flow---1" transform="translate(-1068.000000, -171.000000)">
            <g id="Group-11" transform="translate(1068.000000, 171.000000)">
                <path d="M0.4497,10.9047 C0.4377,10.7927 0.1807,8.1287 2.8457,6.3307 C5.3587,4.6347 5.2397,2.0287 5.2387,2.0027 L6.7357,1.9167 C6.7437,2.0577 6.8977,5.4067 3.6847,7.5737 C1.7617,8.8717 1.9387,10.7237 1.9407,10.7427 L0.4497,10.9047 Z" id="Fill-1" fill="#4E4E4E"></path>
                <mask id="mask-2" fill="white">
                    <use xlink:href="#path-1"></use>
                </mask>
                <g id="Clip-4"></g>
                <polygon id="Fill-3" fill="#4E4E4E" mask="url(#mask-2)" points="0.445 13.5024 1.945 13.5024 1.945 1.6494 0.445 1.6494"></polygon>
                <path d="M0,1.1953 C0,0.5353 0.535,0.0003 1.195,0.0003 C1.855,0.0003 2.39,0.5353 2.39,1.1953 C2.39,1.8553 1.855,2.3903 1.195,2.3903 C0.535,2.3903 0,1.8553 0,1.1953" id="Fill-5" fill="#4E4E4E" mask="url(#mask-2)"></path>
                <path d="M0,13.8071 C0,13.1471 0.535,12.6121 1.195,12.6121 C1.855,12.6121 2.39,13.1471 2.39,13.8071 C2.39,14.4671 1.855,15.0021 1.195,15.0021 C0.535,15.0021 0,14.4671 0,13.8071" id="Fill-6" fill="#4E4E4E" mask="url(#mask-2)"></path>
                <path d="M4.7935,1.2182 C4.7935,0.5582 5.3285,0.0232 5.9885,0.0232 C6.6485,0.0232 7.1835,0.5582 7.1835,1.2182 C7.1835,1.8782 6.6485,2.4132 5.9885,2.4132 C5.3285,2.4132 4.7935,1.8782 4.7935,1.2182" id="Fill-7" fill="#4E4E4E" mask="url(#mask-2)"></path>
                <path d="M10.0166,14.9614 C8.7836,14.9614 7.5996,14.5074 6.6836,13.6834 C6.3856,13.4154 6.3616,12.9574 6.6286,12.6584 C6.8956,12.3624 7.3536,12.3364 7.6526,12.6054 C8.3016,13.1904 9.1426,13.5114 10.0166,13.5114 C11.9646,13.5114 13.5496,11.9264 13.5496,9.9784 C13.5496,8.0294 11.9646,6.4444 10.0166,6.4444 C8.0686,6.4444 6.4826,8.0294 6.4826,9.9784 C6.4826,10.3784 6.1576,10.7024 5.7576,10.7024 C5.3576,10.7024 5.0326,10.3784 5.0326,9.9784 C5.0326,7.2304 7.2686,4.9944 10.0166,4.9944 C12.7646,4.9944 14.9996,7.2304 14.9996,9.9784 C14.9996,12.7264 12.7646,14.9614 10.0166,14.9614" id="Fill-8" fill="#4E4E4E" mask="url(#mask-2)"></path>
                <path d="M11.0449,11.7309 C10.8579,11.7309 10.6739,11.6609 10.5319,11.5189 L9.5039,10.4909 C9.3679,10.3549 9.2919,10.1699 9.2919,9.9779 L9.2919,8.5179 C9.2919,8.1179 9.6159,7.7929 10.0169,7.7929 C10.4169,7.7929 10.7409,8.1179 10.7409,8.5179 L10.7409,9.6779 L11.5579,10.4939 C11.8409,10.7769 11.8409,11.2359 11.5579,11.5189 C11.4159,11.6609 11.2309,11.7309 11.0449,11.7309" id="Fill-9" fill="#4E4E4E" mask="url(#mask-2)"></path>
                <path d="M5.7646,11.8344 C5.5726,11.8344 5.3886,11.7574 5.2516,11.6214 L4.2076,10.5774 C4.0006,10.3704 3.9376,10.0584 4.0506,9.7874 C4.1626,9.5164 4.4276,9.3404 4.7206,9.3404 L6.7946,9.3404 C7.0876,9.3404 7.3506,9.5154 7.4636,9.7854 C7.5766,10.0544 7.5156,10.3654 7.3106,10.5734 L6.2806,11.6174 C6.1446,11.7554 5.9516,11.8534 5.7646,11.8344" id="Fill-10" fill="#4E4E4E" mask="url(#mask-2)"></path>
            </g>
        </g>
    </g>
</svg>