<?xml version="1.0" encoding="UTF-8"?>
<svg width="50px" height="50px" viewBox="0 0 50 50" version="1.1" xmlns="http://www.w3.org/2000/svg" xmlns:xlink="http://www.w3.org/1999/xlink">
    <!-- Generator: Sketch 54.1 (76490) - https://sketchapp.com -->
    <title>Group 13</title>
    <desc>Created with Sketch.</desc>
    <g id="Page-1" stroke="none" stroke-width="1" fill="none" fill-rule="evenodd">
        <g id="prebuilt-category:-step2" transform="translate(-289.000000, -517.000000)">
            <g id="Group-13" transform="translate(289.000000, 516.000000)">
                <g id="Group-4" transform="translate(0.000000, 0.763000)">
                    <path d="M12.283,37.717 L45.68,37.717 C47.333,37.717 48.672,36.377 48.672,34.725 L48.672,3.98 C48.672,2.327 47.333,0.987 45.68,0.987 L3.742,0.987 C2.09,0.987 0.75,2.327 0.75,3.98 L0.75,34.725 L0.75,49.25 L12.283,37.717" id="Fill-1" fill="#59F759"></path>
                    <path d="M12.283,37.717 L45.68,37.717 C47.333,37.717 48.672,36.377 48.672,34.725 L48.672,3.98 C48.672,2.327 47.333,0.987 45.68,0.987 L3.742,0.987 C2.09,0.987 0.75,2.327 0.75,3.98 L0.75,34.725 L0.75,49.25 L12.283,37.717" id="Stroke-3" stroke="#59F759" stroke-width="1.5" stroke-linecap="round" stroke-linejoin="round"></path>
                </g>
                <g id="Group-8" transform="translate(0.000000, 21.763000)">
                    <path d="M7.4876,21.5129 L26.9986,21.5129 C27.9636,21.5129 28.7466,20.7299 28.7466,19.7639 L28.7466,1.8039 C28.7466,0.8379 27.9636,0.0549 26.9986,0.0549 L2.4986,0.0549 C1.5326,0.0549 0.7496,0.8379 0.7496,1.8039 L0.7496,19.7639 L0.7496,28.2499 L7.4876,21.5129" id="Fill-5" fill="#44CC4A"></path>
                    <path d="M7.4876,21.5129 L26.9986,21.5129 C27.9636,21.5129 28.7466,20.7299 28.7466,19.7639 L28.7466,1.8039 C28.7466,0.8379 27.9636,0.0549 26.9986,0.0549 L2.4986,0.0549 C1.5326,0.0549 0.7496,0.8379 0.7496,1.8039 L0.7496,19.7639 L0.7496,28.2499 L7.4876,21.5129" id="Stroke-7" stroke="#44CC4A" stroke-width="1.5" stroke-linecap="round" stroke-linejoin="round"></path>
                </g>
                <g id="Group-12" transform="translate(0.000000, 32.763000)">
                    <path d="M4.6859,13.3137 L16.0839,13.3137 C16.6479,13.3137 17.1049,12.8567 17.1049,12.2927 L17.1049,1.7997 C17.1049,1.2357 16.6479,0.7787 16.0839,0.7787 L1.7709,0.7787 C1.2069,0.7787 0.7499,1.2357 0.7499,1.7997 L0.7499,12.2927 L0.7499,17.2507 L4.6859,13.3137" id="Fill-9" fill="#33A03B"></path>
                    <path d="M4.6859,13.3137 L16.0839,13.3137 C16.6479,13.3137 17.1049,12.8567 17.1049,12.2927 L17.1049,1.7997 C17.1049,1.2357 16.6479,0.7787 16.0839,0.7787 L1.7709,0.7787 C1.2069,0.7787 0.7499,1.2357 0.7499,1.7997 L0.7499,12.2927 L0.7499,17.2507 L4.6859,13.3137" id="Stroke-11" stroke="#33A03B" stroke-width="1.5" stroke-linecap="round" stroke-linejoin="round"></path>
                </g>
            </g>
        </g>
    </g>
</svg>