<?xml version="1.0" encoding="UTF-8"?>
<svg width="23px" height="23px" viewBox="0 0 23 23" version="1.1" xmlns="http://www.w3.org/2000/svg" xmlns:xlink="http://www.w3.org/1999/xlink">
    <!-- Generator: Sketch 55.2 (78181) - https://sketchapp.com -->
    <title>Group 6</title>
    <desc>Created with Sketch.</desc>
    <defs>
        <polygon id="path-1" points="0 0.987 23.013 0.987 23.013 23.9998 0 23.9998"></polygon>
    </defs>
    <g id="Page-1" stroke="none" stroke-width="1" fill="none" fill-rule="evenodd">
        <g id="User-dropdown---hover" transform="translate(-17.000000, -776.000000)">
            <g id="Group-6" transform="translate(17.000000, 775.000000)">
                <g id="Group-3" transform="translate(0.000000, 0.013500)">
                    <mask id="mask-2" fill="white">
                        <use xlink:href="#path-1"></use>
                    </mask>
                    <g id="Clip-2"></g>
                    <path d="M6.5975,14.6308 C6.7905,14.5048 7.0545,14.5728 7.1705,14.7718 L7.4565,15.2588 C7.4565,15.2588 7.6945,15.6758 7.2915,15.9708 L7.3205,15.9708 C5.5245,17.1878 4.3325,19.1258 4.0665,21.2628 C6.0735,22.9668 8.6675,23.9998 11.5065,23.9998 C14.3455,23.9998 16.9395,22.9678 18.9465,21.2638 C18.5005,17.6068 15.4175,14.7518 11.6595,14.6768 C9.5555,14.6338 7.5995,13.4118 6.9945,11.3958 C5.9415,7.8858 8.8825,4.6918 12.3435,5.2888 C14.2535,5.6178 15.8095,7.1678 16.1575,9.0748 C16.4955,10.9408 15.7165,12.6308 14.3985,13.6598 C17.2655,14.6368 19.4865,17.0178 20.2325,19.9818 C21.9615,17.9678 23.0135,15.3558 23.0135,12.4928 C23.0135,6.1378 17.8625,0.9858 11.5065,0.9858 C5.1515,0.9858 -0.0005,6.1378 -0.0005,12.4928 C-0.0005,15.3598 1.0545,17.9758 2.7885,19.9898 C3.3385,17.8118 4.6855,15.8778 6.5975,14.6308" id="Fill-1" fill="#4E4E4E" mask="url(#mask-2)"></path>
                </g>
                <path d="M12.1395,6.7903 C9.8695,6.3563 7.9055,8.3193 8.3375,10.5903 C8.5775,11.8523 9.6095,12.8853 10.8715,13.1273 C13.1435,13.5633 15.1105,11.5973 14.6755,9.3253 C14.4335,8.0633 13.4015,7.0313 12.1395,6.7903" id="Fill-4" fill="#4E4E4E"></path>
            </g>
        </g>
    </g>
</svg>