<?xml version="1.0" encoding="UTF-8"?>
<svg width="50px" height="49px" viewBox="0 0 50 49" version="1.1" xmlns="http://www.w3.org/2000/svg" xmlns:xlink="http://www.w3.org/1999/xlink">
    <!-- Generator: Sketch 54.1 (76490) - https://sketchapp.com -->
    <title>Group 9</title>
    <desc>Created with Sketch.</desc>
    <g id="Page-1" stroke="none" stroke-width="1" fill="none" fill-rule="evenodd">
        <g id="prebuilt-category:-step2" transform="translate(-506.000000, -519.000000)">
            <g id="Group-9" transform="translate(506.000000, 519.000000)">
                <path d="M42.2479,17.4666 C41.8939,17.4666 41.5479,17.5026 41.2079,17.5546 C41.2749,16.9786 41.3179,16.3956 41.3179,15.8006 C41.3179,7.4886 34.5799,0.7496 26.2679,0.7496 C19.4209,0.7496 13.6529,5.3246 11.8269,11.5816 C11.3729,11.5166 10.9129,11.4706 10.4409,11.4706 C5.0889,11.4706 0.7499,15.8096 0.7499,21.1616 C0.7499,26.5136 5.0889,30.8526 10.4409,30.8526 L42.2479,30.8526 C45.9439,30.8526 48.9399,27.8566 48.9399,24.1596 C48.9399,20.4636 45.9439,17.4666 42.2479,17.4666" id="Fill-1" fill="#44C3D8"></path>
                <path d="M42.2479,17.4666 C41.8939,17.4666 41.5479,17.5026 41.2079,17.5546 C41.2749,16.9786 41.3179,16.3956 41.3179,15.8006 C41.3179,7.4886 34.5799,0.7496 26.2679,0.7496 C19.4209,0.7496 13.6529,5.3246 11.8269,11.5816 C11.3729,11.5166 10.9129,11.4706 10.4409,11.4706 C5.0889,11.4706 0.7499,15.8096 0.7499,21.1616 C0.7499,26.5136 5.0889,30.8526 10.4409,30.8526 L42.2479,30.8526 C45.9439,30.8526 48.9399,27.8566 48.9399,24.1596 C48.9399,20.4636 45.9439,17.4666 42.2479,17.4666 Z" id="Stroke-3" stroke="#44C3D8" stroke-width="1.5" stroke-linecap="round" stroke-linejoin="round"></path>
                <polygon id="Fill-5" fill="#FFFFFF" points="20.6614 27.8319 27.0794 27.8319 22.2434 37.5529 25.3594 37.5529 15.0334 47.9249 19.3124 39.2279 16.1504 39.2279"></polygon>
                <polygon id="Stroke-7" stroke="#44C3D8" stroke-width="1.5" stroke-linecap="round" stroke-linejoin="round" points="20.6614 27.8319 27.0794 27.8319 22.2434 37.5529 25.3594 37.5529 15.0334 47.9249 19.3124 39.2279 16.1504 39.2279"></polygon>
            </g>
        </g>
    </g>
</svg>