<?xml version="1.0" encoding="utf-8"?>
<!-- Generator: Adobe Illustrator 23.0.1, SVG Export Plug-In . SVG Version: 6.00 Build 0)  -->
<svg width="16px" height="16px" viewBox="0 0 20 20" version="1.1"  xmlns="http://www.w3.org/2000/svg" xmlns:xlink="http://www.w3.org/1999/xlink" x="0px" y="0px"
	  style="enable-background:new 0 0 20 20;" xml:space="preserve">
<style type="text/css">
	.st0{fill:#4E4E4E;}
</style>
<title>icon-review</title>
<path class="st0" d="M2.5,12.7H1V3.2c0-1.1,0.9-1.9,1.9-1.9h12.9c1,0,1.9,0.9,1.9,1.9c0,0,0,0,0,0v7.5h-1.1c-0.2,0-0.4-0.2-0.4-0.4
	V3.2c0-0.2-0.2-0.4-0.4-0.4H2.9C2.7,2.8,2.5,3,2.5,3.2V12.7z"/>
<path class="st0" d="M1.8,18.9c-0.1,0-0.2,0-0.3-0.1C1.2,18.7,1,18.4,1,18.1v-5.4h1.5v3.6l3-3c0.1-0.1,0.3-0.2,0.5-0.2h2
	c0.2,0,0.4,0.2,0.4,0.4l0,0v0.7c0,0.2-0.2,0.4-0.4,0.4l0,0H6.4l-4.1,4.1C2.2,18.8,2,18.8,1.8,18.9z"/>
<path class="st0" d="M18.2,16.7l-2.4-2.4c-1.4,1-3.2,1.2-4.8,0.4c-1.1-0.5-2-1.5-2.3-2.7c-0.8-2.4,0.4-5.1,2.8-5.9s5.1,0.4,5.9,2.8
	c0.2,0.5,0.3,1.1,0.3,1.7c0,0,0,0.1,0,0.1c0,0.2-0.2,0.4-0.4,0.4c0,0,0,0,0,0L16.6,11c-0.2,0-0.3-0.2-0.3-0.4c0-0.2,0-0.5-0.1-0.7
	c-0.2-1.2-1.1-2.1-2.3-2.4c-1.7-0.4-3.4,0.6-3.8,2.3c-0.1,0.5-0.1,1,0,1.5c0.2,0.9,0.8,1.7,1.7,2.1c1.1,0.5,2.5,0.3,3.4-0.5l0.2-0.1
	c0.3-0.3,0.7-0.3,1,0l2.9,2.9c0.1,0.1,0.2,0.4,0,0.5c0,0,0,0,0,0l-0.5,0.5C18.6,16.8,18.3,16.8,18.2,16.7z"/>
</svg>
