<svg width="16px" height="16px" xmlns="http://www.w3.org/2000/svg" viewBox="0 0 16 16">
  <defs>
    <style>
      .cls-1 {
        fill: #4e4e4e;
      }
    </style>
  </defs>
  <title>icon-copy</title>
  <path class="cls-1" d="M14.86,4.22a1.29,1.29,0,0,0,0-.19l0-.07a.64.64,0,0,0-.14-.22h0L11.15.24a.86.86,0,0,0-.22-.15l-.07,0-.19,0H7.09A1.61,1.61,0,0,0,5.48,1.63v1H1.77A1.61,1.61,0,0,0,.16,4.19v9.15a1.61,1.61,0,0,0,1.61,1.6H7.94a1.61,1.61,0,0,0,1.61-1.6v-1h3.71a1.61,1.61,0,0,0,1.61-1.61V4.27S14.86,4.24,14.86,4.22Zm-2.55-.7h-.94V2.58Zm.95,7.36H7.09A.11.11,0,0,1,7,10.77V6.08a.34.34,0,0,0-.34-.34H5.82a.34.34,0,0,0-.34.34v4.69a1.61,1.61,0,0,0,1.61,1.61h1v1a.1.1,0,0,1-.11.1H1.76a.1.1,0,0,1-.1-.1V4.19a.1.1,0,0,1,.11-.1H6.6A.38.38,0,0,0,7,3.71V1.63a.11.11,0,0,1,.11-.11H9.87V4.27a.76.76,0,0,0,.75.75h2.75v5.75A.11.11,0,0,1,13.26,10.88Z"/>
</svg>
