<svg id="Layer_1" data-name="Layer 1" xmlns="http://www.w3.org/2000/svg" viewBox="0 0 500 400">
  <defs>
    <style>
      .cls-1 {
        fill: #ebf2f0;
      }

      .cls-2 {
        fill: #d9ddda;
      }

      .cls-3 {
        fill: #00ca9f;
      }

      .cls-10, .cls-4, .cls-5, .cls-7, .cls-8, .cls-9 {
        fill: none;
        stroke: #4e4e4e;
        stroke-linecap: round;
        stroke-linejoin: round;
      }

      .cls-10, .cls-4, .cls-7, .cls-8, .cls-9 {
        stroke-width: 1.31px;
      }

      .cls-5 {
        stroke-width: 0.65px;
      }

      .cls-6 {
        fill: #4e4e4e;
      }

      .cls-7 {
        stroke-dasharray: 3.84 3.84;
      }

      .cls-8 {
        stroke-dasharray: 4.01 4.01;
      }

      .cls-9 {
        stroke-dasharray: 3.9 3.9;
      }

      .cls-10 {
        stroke-dasharray: 3.55 3.55;
      }
    </style>
  </defs>
  <title>Artboard 1</title>
  <path class="cls-1" d="M91,366.08l71.61-54.37H400.51A30.71,30.71,0,0,0,431.21,281V60.82a30.71,30.71,0,0,0-30.67-30.71h-301A30.71,30.71,0,0,0,68.79,60.82V356.89A13,13,0,0,0,91,366.08Z"/>
  <path class="cls-2" d="M267.76,203.19h14.46a2.74,2.74,0,0,0,2.74-2.74V152.07a6.13,6.13,0,0,0-6.13-6.13h-.14v-9.19a9.79,9.79,0,1,0-5.25,0v9.18H218.71a6.13,6.13,0,0,0-6.13,6.13v48.15a3,3,0,0,0,3,3h15.58m44.92-71.34a4.52,4.52,0,1,1,4.52-4.52A4.52,4.52,0,0,1,276.05,131.84Z"/>
  <path class="cls-3" d="M176.28,313.5l13.23-72.7s-2.34-2.89,10-5.18l7.22-1.74,2.34-12a4.2,4.2,0,0,1,3.72-3.39c10.45-1,51.42-6,74.84-1.44,2.62.51,6.93,2.56,7.75,5.11l1.62,11.67,14,4.26a4,4,0,0,1,2.81,3.23l13.7,70.13Z"/>
  <path class="cls-4" d="M288.45,217.5A250.16,250.16,0,0,0,250,214.38c-22.75,0-38.45,3.12-38.45,3.12-3.43.44-4.94,2-5.2,4.71L196.14,311.5H303.86l-10.21-89.29C293.39,219.53,291.21,218.28,288.45,217.5Z"/>
  <path class="cls-4" d="M205,233.88l-13.87,3.34a4.54,4.54,0,0,0-3.4,3.58L174.5,311.5h21.64"/>
  <path class="cls-4" d="M295.27,233.88l13.87,3.34a4.54,4.54,0,0,1,3.4,3.58l13.23,70.7H304.13"/>
  <path class="cls-5" d="M218.75,218.61a73,73,0,0,0-7.58,1.31s-2.3.24-2.62,3.25l-2.12,19.13"/>
  <path class="cls-5" d="M244.71,216.89s-12.6.23-23.5,1.43"/>
  <circle class="cls-6" cx="219.98" cy="218.44" r="0.34"/>
  <line class="cls-5" x1="298.87" y1="288.62" x2="294.07" y2="243.5"/>
  <line class="cls-5" x1="300.9" y1="307.67" x2="299.59" y2="295.42"/>
  <line class="cls-5" x1="189.04" y1="245.64" x2="188.04" y2="251.04"/>
  <path class="cls-5" d="M201.54,244.63l.88-7.92L191.92,239s-1.62.31-2.17,2.83"/>
  <line class="cls-5" x1="189.25" y1="244.39" x2="189.45" y2="243.22"/>
  <path class="cls-5" d="M313.27,256.47c1.18,6.37,2.29,12.34,2.29,12.34"/>
  <path class="cls-5" d="M299.44,237.06l9,2.19a3,3,0,0,1,2.09,2.25c.13.76,1.1,6,2.16,11.76"/>
  <path class="cls-4" d="M236.25,214.75l.44-7.59a2.69,2.69,0,0,1,2.49-2.54c2.35-.18,6.32-.4,11.15-.4,5.11,0,8.65.18,10.82.34a3.06,3.06,0,0,1,2.83,2.88l.43,7.36"/>
  <path class="cls-5" d="M264.08,207.47s-8.24-1.24-22-.46"/>
  <g>
    <g>
      <line class="cls-4" x1="268.88" y1="204.23" x2="270.88" y2="204.23"/>
      <path class="cls-7" d="M274.71,204.23h8.63a2.74,2.74,0,0,0,2.74-2.74V153.11a6.13,6.13,0,0,0-2.59-5"/>
      <path class="cls-4" d="M281.78,147.26a6.13,6.13,0,0,0-1.83-.28h-.14v-2"/>
      <path class="cls-4" d="M279.81,139.79v-2a9.79,9.79,0,0,0,1.86-.73"/>
      <path class="cls-8" d="M284.77,134.55A9.79,9.79,0,1,0,271,136"/>
      <path class="cls-4" d="M272.7,137.06a9.84,9.84,0,0,0,1.86.73v2"/>
      <polyline class="cls-4" points="274.56 144.97 274.56 146.97 272.56 146.97"/>
      <path class="cls-9" d="M268.66,147H219.83a6.13,6.13,0,0,0-6.13,6.13v48.15a3,3,0,0,0,3,3H228.3"/>
      <line class="cls-4" x1="230.25" y1="204.23" x2="232.25" y2="204.23"/>
    </g>
    <circle class="cls-10" cx="277.17" cy="128.37" r="4.52"/>
  </g>
  <line class="cls-4" x1="453.5" y1="65.5" x2="54" y2="65.5"/>
  <path class="cls-3" d="M136.1,69.21a9.45,9.45,0,1,0-9.36,9.53l2.45,8.51L78.46,101.88a5.92,5.92,0,0,0-4,7.32l12.68,44a3.52,3.52,0,0,0,4.36,2.41l60.34-17.38a3.52,3.52,0,0,0,2.41-4.36l-12.68-44a5.92,5.92,0,0,0-7.32-4l-.13,0-2.45-8.52A9.45,9.45,0,0,0,136.1,69.21Zm-33.66,62.5a6.86,6.86,0,1,1,4.7-8.5A6.86,6.86,0,0,1,102.44,131.71Zm28.14-8.11a6.86,6.86,0,1,1,4.7-8.5A6.86,6.86,0,0,1,130.58,123.6Zm-1.93-50.41A4.36,4.36,0,1,1,131,68.95,4.37,4.37,0,0,1,128.65,73.19Z"/>
  <path class="cls-4" d="M134.85,68.09a9.45,9.45,0,1,0-9.36,9.53l2.45,8.51L77.21,100.75a5.92,5.92,0,0,0-4,7.32l12.68,44a3.52,3.52,0,0,0,4.36,2.41l60.34-17.38a3.52,3.52,0,0,0,2.41-4.36l-12.68-44a5.92,5.92,0,0,0-7.32-4l-.13,0-2.45-8.52A9.45,9.45,0,0,0,134.85,68.09Zm-33.66,62.5a6.86,6.86,0,1,1,4.7-8.5A6.86,6.86,0,0,1,101.19,130.59Zm28.14-8.11A6.86,6.86,0,1,1,134,114,6.86,6.86,0,0,1,129.33,122.48ZM127.4,72.07a4.36,4.36,0,1,1,2.34-4.24A4.37,4.37,0,0,1,127.4,72.07Z"/>
  <path class="cls-5" d="M90.8,99.64l-13,3.58s-3.06.59-2.08,4.67C76.4,110.74,78,116,78,116"/>
  <path class="cls-5" d="M140.41,137.86l8.47-2.48s2.38-.62,1.94-2.19-2.62-8.87-2.62-8.87"/>
  <line class="cls-5" x1="131.38" y1="140.5" x2="137.74" y2="138.64"/>
  <line class="cls-4" x1="127.31" y1="65.5" x2="135.81" y2="65.5"/>
  <path class="cls-3" d="M422.9,69.24a9.45,9.45,0,1,0-10.22,8.6l1.63,8.71-51.9,9.74a5.92,5.92,0,0,0-4.72,6.91l8.44,45a3.52,3.52,0,0,0,4.11,2.81L432,139.44a3.52,3.52,0,0,0,2.81-4.11l-8.44-45a5.92,5.92,0,0,0-6.91-4.72l-.14,0-1.64-8.72A9.45,9.45,0,0,0,422.9,69.24Zm-39.44,59a6.86,6.86,0,1,1,5.48-8A6.86,6.86,0,0,1,383.45,128.26Zm28.79-5.4a6.86,6.86,0,1,1,5.48-8A6.86,6.86,0,0,1,412.24,122.86Zm2.86-50.37a4.36,4.36,0,1,1,2.74-4A4.37,4.37,0,0,1,415.1,72.49Z"/>
  <path class="cls-4" d="M421.76,68a9.45,9.45,0,1,0-10.22,8.6l1.63,8.71L361.27,95a5.92,5.92,0,0,0-4.72,6.91L365,147a3.52,3.52,0,0,0,4.11,2.81l61.72-11.58a3.52,3.52,0,0,0,2.81-4.11l-8.44-45a5.92,5.92,0,0,0-6.91-4.72l-.14,0-1.64-8.72A9.45,9.45,0,0,0,421.76,68Zm-39.44,59a6.86,6.86,0,1,1,5.48-8A6.86,6.86,0,0,1,382.32,127Zm28.79-5.4a6.86,6.86,0,1,1,5.48-8A6.86,6.86,0,0,1,411.1,121.62ZM414,71.25a4.36,4.36,0,1,1,2.74-4A4.37,4.37,0,0,1,414,71.25Z"/>
  <path class="cls-5" d="M374.91,95.23l-13.28,2.33s-3.11.3-2.52,4.45c.41,2.9,1.47,8.26,1.47,8.26"/>
  <path class="cls-5" d="M420.67,138l8.67-1.67s2.42-.4,2.14-2-1.77-9.08-1.77-9.08"/>
  <line class="cls-5" x1="411.42" y1="139.75" x2="417.93" y2="138.5"/>
  <line class="cls-4" x1="414.19" y1="65.5" x2="423.5" y2="65.5"/>
</svg>
