<svg xmlns="http://www.w3.org/2000/svg" viewBox="0 0 344.63 216.07">
  <defs>
    <style>
      .cls-1 {
        fill: #00b58a;
      }

      .cls-2, .cls-7, .cls-9 {
        fill: none;
      }

      .cls-2, .cls-5, .cls-7, .cls-8, .cls-9 {
        stroke: #4e4e4e;
        stroke-linecap: round;
        stroke-linejoin: round;
      }

      .cls-2, .cls-5 {
        stroke-width: 1.31px;
      }

      .cls-3 {
        opacity: 0.24;
      }

      .cls-4 {
        font-size: 186.19px;
        fill: #768783;
        font-family: Montserrat-Bold, Montserrat;
        font-weight: 700;
      }

      .cls-5, .cls-8 {
        fill: #fff;
      }

      .cls-6 {
        fill: #00ca9f;
      }

      .cls-7 {
        stroke-width: 0.65px;
      }

      .cls-8, .cls-9 {
        stroke-width: 1.11px;
      }
    </style>
  </defs>
  <title>404-img_1</title>
  <g id="Layer_2" data-name="Layer 2">
    <g id="Layer_1-2" data-name="Layer 1">
      <polyline class="cls-1" points="267.25 121.61 291.78 149.28 266.48 148.72"/>
      <polyline class="cls-1" points="77.77 121.61 53.24 149.28 78.54 148.72"/>
      <line class="cls-2" x1="23.54" y1="187.07" x2="327.88" y2="187.07"/>
      <g class="cls-3">
        <text class="cls-4" transform="translate(0 158.35)">404</text>
      </g>
      <path class="cls-5" d="M171.39,124.12l20.84-1,25.08,22.72a4.8,4.8,0,0,0,6.81-.34l23.21-25.62a4.8,4.8,0,0,0-.34-6.81L212,81.31a4.8,4.8,0,0,0-6.81.34l-35.4,39.08a2,2,0,0,0,1.65,3.4Z"/>
      <path class="cls-5" d="M177,98.75l16.72,12.48,4.85,33.49a4.8,4.8,0,0,0,5.46,4.08l34.21-5a4.8,4.8,0,0,0,4.08-5.46l-6.78-46.79a4.8,4.8,0,0,0-5.46-4.08l-52.18,7.56a2,2,0,0,0-.89,3.67Z"/>
      <g>
        <path class="cls-5" d="M152,70.85A8,8,0,1,0,143,77.6l.94,7.41L99.68,90.64a5,5,0,0,0-4.32,5.58l5.26,41.33,58.49-7.45-5.25-41.28a5,5,0,0,0-5.58-4.32h-.1l-.94-7.41A8.15,8.15,0,0,0,152,70.85Zm-7.46,2.53a3.68,3.68,0,1,1,3.19-4.12A3.7,3.7,0,0,1,144.57,73.38Z"/>
        <line class="cls-2" x1="119.76" y1="107.15" x2="110.8" y2="119.21"/>
        <line class="cls-2" x1="109.25" y1="108.7" x2="121.31" y2="117.66"/>
        <line class="cls-2" x1="142.94" y1="103.5" x2="133.98" y2="115.57"/>
        <line class="cls-2" x1="132.43" y1="105.05" x2="144.49" y2="114.01"/>
      </g>
      <path class="cls-6" d="M80.61,117.44H263.87a3.38,3.38,0,0,1,3.38,3.38v70.75a2.8,2.8,0,0,1-2.8,2.8H79.33a2.09,2.09,0,0,1-2.09-2.09V120.82A3.38,3.38,0,0,1,80.61,117.44Z"/>
      <path class="cls-1" d="M263.07,117.44h-2.26v76.92h2.84a3.6,3.6,0,0,0,3.6-3.6V121.61A4.17,4.17,0,0,0,263.07,117.44Z"/>
      <path class="cls-2" d="M77.55,120.44H266.24a2.3,2.3,0,0,1,2.3,2.3V192.4a0,0,0,0,1,0,0H75.25a0,0,0,0,1,0,0V122.74A2.3,2.3,0,0,1,77.55,120.44Z"/>
      <line class="cls-7" x1="93.08" y1="122.59" x2="181.85" y2="122.59"/>
      <line class="cls-7" x1="75.69" y1="122.59" x2="85.24" y2="122.59"/>
      <polyline class="cls-7" points="210.83 190.35 266.48 190.35 266.48 172.02"/>
      <line class="cls-7" x1="200.31" y1="190.35" x2="207.83" y2="190.35"/>
      <polyline class="cls-2" points="75.69 121.4 50.91 149.28 74.58 149.28"/>
      <polyline class="cls-2" points="268.17 121.4 292.95 149.28 268.54 149.28"/>
      <line class="cls-7" x1="75.69" y1="122.59" x2="266.48" y2="190.35"/>
      <line class="cls-7" x1="267.25" y1="122.59" x2="78.54" y2="189.65"/>
      <path class="cls-8" d="M142.94,56.07s-7.8-3.13,0-5.54,8.63-6.74,1.55-9.63c-6.13-2.5-21.83-6-9.83-11.17,5.07-2.16,12.58-2.12,19.58-.92,0,0,4.51.8,4,4.54-.38,3.06-1.51,3.68-5.92,4.17-5.25.58,1.31.92.95,6.63-.25,4-8.62,5.76-8.62,5.76"/>
      <path class="cls-9" d="M151.7,28.66"/>
      <path class="cls-7" d="M132.22,33.27s3.14-4.07,13.64-3.87C155,29.57,156,31.33,156,31.33"/>
      <path class="cls-7" d="M151.81,35.92s-2.73.09-3.33,1.59,1.85,2.91,1.85,2.91"/>
      <path class="cls-7" d="M184.41,101.24l-4.81-3.52a.39.39,0,0,1,.18-.71l37.63-5.45"/>
      <line class="cls-7" x1="198.23" y1="92.13" x2="206.2" y2="83.28"/>
      <line class="cls-7" x1="154.2" y1="109.15" x2="151.8" y2="89.5"/>
      <line class="cls-7" x1="155.21" y1="117.51" x2="154.61" y2="112.55"/>
      <path class="cls-7" d="M106,91.65l-5.86.75a3.33,3.33,0,0,0-2.89,3.73l1.41,11"/>
    </g>
  </g>
</svg>
