<svg id="Layer_1" data-name="Layer 1" xmlns="http://www.w3.org/2000/svg" viewBox="0 0 344.63 216.07">
  <defs>
    <style>
      .cls-1 {
        fill: #00b58a;
      }

      .cls-2, .cls-8 {
        fill: none;
      }

      .cls-2, .cls-6, .cls-8, .cls-9 {
        stroke: #4e4e4e;
        stroke-linecap: round;
        stroke-linejoin: round;
      }

      .cls-2, .cls-6 {
        stroke-width: 1.31px;
      }

      .cls-3 {
        opacity: 0.24;
      }

      .cls-4 {
        isolation: isolate;
      }

      .cls-5 {
        fill: #768783;
      }

      .cls-6, .cls-9 {
        fill: #fff;
      }

      .cls-7 {
        fill: #00ca9f;
      }

      .cls-8 {
        stroke-width: 0.65px;
      }

      .cls-9 {
        stroke-width: 1.11px;
      }
    </style>
  </defs>
  <title>404-img</title>
  <g id="Layer_2" data-name="Layer 2">
    <g id="Layer_1-2" data-name="Layer 1-2">
      <polyline class="cls-1" points="266.45 119.26 290.99 146.93 265.69 146.37"/>
      <polyline class="cls-1" points="76.97 119.26 52.45 146.93 77.75 146.37"/>
      <line class="cls-2" x1="22.74" y1="184.72" x2="327.08" y2="184.72"/>
      <g class="cls-3">
        <g class="cls-4">
          <path class="cls-5" d="M75.54,25.3,39.23,101.82H63.63l-.19-27.56H94.72v27.56h16.76V127.7H94.72V156H63.44V127.7h-59V104.8L43.15,25.3Z"/>
          <path class="cls-5" d="M222.63,90.65c0,42.64-18.25,66.28-51,66.28-33.14,0-51.2-23.65-51.2-66.28s18.06-66.1,51.2-66.1C204.38,24.55,222.63,48,222.63,90.65Zm-69.63,0c0,29.79,5.4,42.26,18.62,42.26,13,0,18.43-12.47,18.43-42.26,0-30-5.4-42.26-18.43-42.26C158.39,48.38,153,60.67,153,90.65Z"/>
          <path class="cls-5" d="M305.29,25.3,269,101.82h24.39l-.19-27.56h31.28v27.56h16.76V127.7H324.47V156H293.19V127.7h-59V104.8L272.9,25.3Z"/>
        </g>
      </g>
      <path class="cls-6" d="M170.59,121.77l20.84-1,25.08,22.72a4.8,4.8,0,0,0,6.78-.31l0,0,23.21-25.62a4.8,4.8,0,0,0-.31-6.78l0,0L211.2,79a4.8,4.8,0,0,0-6.78.31l0,0L169,118.38a2,2,0,0,0,1.65,3.4Z"/>
      <path class="cls-6" d="M176.2,96.4l16.72,12.48,4.85,33.49a4.8,4.8,0,0,0,5.42,4.09h0l34.21-5a4.8,4.8,0,0,0,4.09-5.42v0L234.74,89.2a4.8,4.8,0,0,0-5.42-4.09h0L177.1,92.68a2,2,0,0,0-.89,3.67Z"/>
      <g>
        <path class="cls-6" d="M151.2,68.5a8,8,0,1,0-9.09,6.74h.09l.94,7.41L98.88,88.29a5,5,0,0,0-4.32,5.58l5.26,41.33,58.49-7.45-5.25-41.28a5,5,0,0,0-5.58-4.32h-.1l-.94-7.41A8.15,8.15,0,0,0,151.2,68.5ZM143.74,71a3.68,3.68,0,1,1,3.19-4.12A3.68,3.68,0,0,1,143.74,71Z"/>
        <line class="cls-2" x1="118.96" y1="104.8" x2="110" y2="116.86"/>
        <line class="cls-2" x1="108.45" y1="106.35" x2="120.51" y2="115.31"/>
        <line class="cls-2" x1="142.14" y1="101.15" x2="133.18" y2="113.22"/>
        <line class="cls-2" x1="131.63" y1="102.7" x2="143.69" y2="111.66"/>
      </g>
      <path class="cls-7" d="M79.81,115.09H263.07a3.38,3.38,0,0,1,3.38,3.38h0v70.75a2.8,2.8,0,0,1-2.8,2.8H78.53a2.09,2.09,0,0,1-2.09-2.09V118.47A3.38,3.38,0,0,1,79.81,115.09Z"/>
      <path class="cls-1" d="M262.27,115.09H260V192h2.84a3.6,3.6,0,0,0,3.6-3.6h0V119.26a4.17,4.17,0,0,0-4.17-4.17Z"/>
      <path class="cls-2" d="M76.75,118.09H265.44a2.3,2.3,0,0,1,2.3,2.3V190H74.45V120.39A2.3,2.3,0,0,1,76.75,118.09Z"/>
      <line class="cls-8" x1="92.28" y1="120.24" x2="181.05" y2="120.24"/>
      <line class="cls-8" x1="74.89" y1="120.24" x2="84.44" y2="120.24"/>
      <polyline class="cls-8" points="210.03 188 265.69 188 265.69 169.67"/>
      <line class="cls-8" x1="199.51" y1="188" x2="207.03" y2="188"/>
      <polyline class="cls-2" points="74.89 119.05 50.12 146.93 73.78 146.93"/>
      <polyline class="cls-2" points="267.38 119.05 292.15 146.93 267.75 146.93"/>
      <line class="cls-8" x1="74.89" y1="120.24" x2="265.68" y2="188"/>
      <line class="cls-8" x1="266.45" y1="120.24" x2="77.74" y2="187.3"/>
      <path class="cls-9" d="M142.14,53.72s-7.8-3.13,0-5.54,8.63-6.74,1.55-9.63c-6.13-2.5-21.83-6-9.83-11.17,5.07-2.16,12.58-2.12,19.58-.92,0,0,4.51.8,4,4.54-.38,3.06-1.51,3.68-5.92,4.17-5.25.58,1.31.92.95,6.63-.25,4-8.62,5.76-8.62,5.76"/>
      <path class="cls-8" d="M131.42,30.92s3.14-4.07,13.64-3.87C154.2,27.22,155.2,29,155.2,29"/>
      <path class="cls-8" d="M151,33.57s-2.73.09-3.33,1.59,1.85,2.91,1.85,2.91"/>
      <path class="cls-8" d="M183.61,98.89l-4.81-3.52a.39.39,0,0,1,.18-.71l37.63-5.45"/>
      <line class="cls-8" x1="197.43" y1="89.78" x2="205.4" y2="80.93"/>
      <line class="cls-8" x1="153.4" y1="106.8" x2="151" y2="87.15"/>
      <line class="cls-8" x1="154.41" y1="115.16" x2="153.81" y2="110.2"/>
      <path class="cls-8" d="M105.2,89.3,99.34,90a3.33,3.33,0,0,0-2.89,3.72h0l1.41,11"/>
    </g>
  </g>
</svg>
