<svg id="Layer_1" data-name="Layer 1" xmlns="http://www.w3.org/2000/svg" viewBox="0 0 50 50">
  <defs>
    <style>
      .cls-1, .cls-2, .cls-4 {
        fill: #fff;
      }

      .cls-1, .cls-2, .cls-3, .cls-4 {
        stroke: #d3d7e1;
      }

      .cls-1, .cls-2, .cls-3 {
        stroke-linecap: round;
        stroke-linejoin: round;
      }

      .cls-2 {
        stroke-width: 0.75px;
      }

      .cls-3 {
        fill: none;
      }

      .cls-4 {
        stroke-miterlimit: 10;
      }
    </style>
  </defs>
  <title>delete-ilus</title>
  <g>
    <path class="cls-1" d="M29.67,18.49a.93.93,0,0,0-1-.81l-.84.1-8.41,1a.93.93,0,0,0-.81,1l.91,7.5a.93.93,0,0,0,1,.81L29.77,27a.93.93,0,0,0,.81-1Z"/>
    <circle class="cls-2" cx="26.96" cy="13.96" r="1.12" transform="translate(-1.49 3.35) rotate(-6.93)"/>
    <line class="cls-3" x1="27.43" y1="17.83" x2="27.12" y2="15.33"/>
  </g>
  <path class="cls-4" d="M25,22H17.84a.75.75,0,0,0-.74.84l1.82,15.5a.75.75,0,0,0,.74.66H30.33a.75.75,0,0,0,.74-.66l1.82-15.5a.75.75,0,0,0-.74-.84Z"/>
  <line class="cls-3" x1="32.54" y1="27.02" x2="40.83" y2="39"/>
  <rect class="cls-3" x="35.26" y="31.54" width="4.4" height="1.88" transform="translate(42.87 -16.8) rotate(55.34)"/>
  <line class="cls-3" x1="22.65" y1="28.15" x2="27.35" y2="32.85"/>
  <line class="cls-3" x1="22.65" y1="32.85" x2="27.35" y2="28.15"/>
</svg>
