<svg id="Layer_1" data-name="Layer 1" xmlns="http://www.w3.org/2000/svg" viewBox="0 0 50 50">
  <defs>
    <style>
      .cls-1 {
        fill: #fff;
      }

      .cls-1, .cls-2, .cls-3 {
        stroke: #d3d7e1;
        stroke-linecap: round;
        stroke-linejoin: round;
      }

      .cls-2 {
        fill: none;
      }

      .cls-3 {
        fill: #d3d7e1;
      }
    </style>
  </defs>
  <title>exit-ilus</title>
  <g>
    <g>
      <path class="cls-1" d="M33.48,24.25a1.36,1.36,0,0,0-1.36-1.36H18.44a1.36,1.36,0,0,0-1.36,1.36V36.7h16.4Z"/>
      <g>
        <path class="cls-1" d="M23.59,28.59a1.65,1.65,0,0,1-3,1.38"/>
        <circle class="cls-1" cx="28.23" cy="29.49" r="1.65"/>
      </g>
      <polyline class="cls-2" points="30.33 22.89 18.44 22.89 14.75 14.2 30.33 14.2 30.33 22.89 30.33 19.19"/>
      <circle class="cls-1" cx="30.33" cy="17.16" r="1.65"/>
    </g>
    <line class="cls-1" x1="24.24" y1="28.48" x2="19.9" y2="28.48"/>
    <polygon class="cls-3" points="14.75 14.2 14.75 35.52 20.6 39.83 20.6 17.95 14.75 14.2"/>
  </g>
</svg>
