<svg xmlns="http://www.w3.org/2000/svg" viewBox="0 0 1037.45 256">
  <defs>
    <style>
      .cls-1 {
        fill: #fff;
      }
    </style>
  </defs>
  <title>logo</title>
  <g id="Layer_2" data-name="Layer 2">
    <g id="Layer_1-2" data-name="Layer 1">
      <g>
        <g>
          <path class="cls-1" d="M174.1,0H7.7A7.7,7.7,0,0,0,0,7.7V248.2A7.73,7.73,0,0,0,7.7,256H43.3V187.8a8.24,8.24,0,0,1,8.2-8.2h73V167.4a13.08,13.08,0,1,1,7,0v12.3h.2a8.24,8.24,0,0,1,8.2,8.2V256h34.3a7.7,7.7,0,0,0,7.7-7.7V7.8A7.88,7.88,0,0,0,174.1,0ZM139.8,115.6a8.24,8.24,0,0,1-8.2,8.2H74.2L49.1,148.9a3.45,3.45,0,0,1-5.9-2.4V57a8.24,8.24,0,0,1,8.2-8.2h80.2a8.24,8.24,0,0,1,8.2,8.2Z"/>
          <circle class="cls-1" cx="127.9" cy="154.8" r="6"/>
        </g>
        <g>
          <path class="cls-1" d="M70.6,228.4a9.5,9.5,0,1,1,9.5-9.5A9.5,9.5,0,0,1,70.6,228.4Z"/>
          <path class="cls-1" d="M111.1,228.4a9.5,9.5,0,1,1,9.5-9.5A9.5,9.5,0,0,1,111.1,228.4Z"/>
        </g>
      </g>
      <g>
        <path class="cls-1" d="M330,165.5H283.1l-7.6,19.2H246.4L293,76.2h29.1l45.5,108.5H337.4Zm-8.4-21.7-14.9-38.7-15.2,38.7Z"/>
        <path class="cls-1" d="M431.8,99.9v25.2c-15.3-1.5-25.5,5.3-26.9,16.9v42.7H377.4V101h27.5v13.9C410.6,105.3,420,99.9,431.8,99.9Z"/>
        <path class="cls-1" d="M504.8,180.4c-6,3.6-14.4,5.6-22.6,5.6-16.2.2-28-9.4-28-26.8V123.3H442.6V105h11.6V81.8h27.4V105h21.7v18.3H481.6v31.6c0,6.2,2.8,9,7.6,8.8,2.8,0,6.3-1.1,10.4-2.8Z"/>
        <path class="cls-1" d="M546.6,101v83.7H519.2V101Zm-1-23.5a12.55,12.55,0,1,1-25.1.7v-.7c0-7.4,5.3-12.7,12.5-12.7s12.5,5.2,12.6,12.7Z"/>
        <path class="cls-1" d="M605.3,122.8c-9.9,0-16.7,8.2-16.7,20.3s6.8,20.3,16.7,20.3c7.3,0,13-2.9,16.4-9.4L642,165.6c-6.7,12.8-20.3,20.1-38.1,20.1-25.8,0-43-16.9-43-42.4,0-26,17.3-43.2,43.3-43.2,16.9,0,30.2,7.3,37.5,19.8l-20,11.6A19,19,0,0,0,605.3,122.8Z"/>
        <path class="cls-1" d="M738.1,101v83.7H710.5V171c-5.7,9.8-14.9,14.7-26.8,14.9-18.1,0-29.9-12.5-29.9-32V101h27.5v45c0,9.4,5.3,15.2,13.5,15.2,9.8-.1,15.6-7.9,15.6-18.9V101Z"/>
        <path class="cls-1" d="M781,69.9V184.7H753.4V69.9Z"/>
        <path class="cls-1" d="M873.3,130.2v54.5H846.2v-9.4c-5.4,7-13.9,10.7-25.2,10.7-18,0-28.6-10.8-28.6-26.2,0-15.9,11.3-25.1,32-25.4h21.8v-.9c0-7.9-5.4-12.5-15.9-12.5-7,0-16.1,2.3-25.1,6.7l-7.6-18.6c13.2-5.9,25.2-9.1,39-9.1C859.7,99.9,873.2,111,873.3,130.2Zm-27,26.2v-7.3H829.9c-7.7,0-11.6,2.8-11.6,8.7,0,5.7,4.2,9.4,11.3,9.4,8.2,0,15-4.5,16.7-10.8Z"/>
        <path class="cls-1" d="M945.5,180.4c-6,3.6-14.4,5.6-22.6,5.6-16.2.2-28-9.4-28-26.8V123.3H883.3V105h11.6V81.8h27.4V105H944v18.3H922.3v31.6c0,6.2,2.8,9,7.6,8.8,2.8,0,6.3-1.1,10.4-2.8Z"/>
        <path class="cls-1" d="M1037.3,150.2H979.1c2.6,9.4,9.6,14.7,19,14.7a28.24,28.24,0,0,0,19.7-8.5l14.4,14.4c-8.5,9.6-21,14.9-36.5,14.9-27.4,0-44.3-16.9-44.3-42.4,0-26,17.5-43.2,43.6-43.2C1024.3,100,1039.1,119.7,1037.3,150.2Zm-26.7-14.7c0-9.6-6.2-16.1-15.5-16.1-9,0-14.9,6.5-16.7,16.1Z"/>
      </g>
    </g>
  </g>
</svg>
